<svg data-name="Component 91 – 2" xmlns="http://www.w3.org/2000/svg" width="24" height="24" viewBox="0 0 24 24">
    <g data-name="Group 9911">
        <path data-name="Path 25857" d="M118.857 38.165h-1.2v-1.583A1.582 1.582 0 0 0 116.076 35h-9.494A1.582 1.582 0 0 0 105 36.582v9.494a1.582 1.582 0 0 0 1.582 1.582h1.582v1.2a1.582 1.582 0 0 0 1.582 1.582h9.11a1.582 1.582 0 0 0 1.582-1.582v-9.11a1.582 1.582 0 0 0-1.582-1.582zm-12.8 7.912v-9.495a.527.527 0 0 1 .527-.527h9.494a.527.527 0 0 1 .527.527v9.494a.527.527 0 0 1-.527.527h-9.494a.527.527 0 0 1-.527-.527zm13.33 2.781a.527.527 0 0 1-.527.527h-9.11a.527.527 0 0 1-.527-.527v-1.2h6.857a1.582 1.582 0 0 0 1.582-1.582v-6.857h1.2a.527.527 0 0 1 .527.527z" transform="translate(-101.001 -31.001)" style="fill:#6d6d6d"/>
        <g data-name="Path 25854" style="fill:#6d6d6d">
            <path d="M3.081 6.547v-2.7H.385a.385.385 0 0 1 0-.77h2.7V.385a.385.385 0 0 1 .77 0v2.7h2.7a.385.385 0 0 1 0 .77h-2.7v2.7a.385.385 0 0 1-.77 0z" style="stroke:none" transform="translate(6.788 6.747)"/>
            <path d="M3.466 6.932a.385.385 0 0 1-.385-.385V3.85H.385a.385.385 0 0 1 0-.77H3.08V.385a.385.385 0 0 1 .77 0V3.08h2.696a.385.385 0 0 1 0 .77H3.85v2.696a.385.385 0 0 1-.385.385z" style="fill:#6d6d6d;stroke:none" transform="translate(6.788 6.747)"/>
        </g>
    </g>
</svg>
