<svg data-name="Component 91 – 4" xmlns="http://www.w3.org/2000/svg" width="24" height="24" viewBox="0 0 24 24">
    <g data-name="Group 9623">
        <path data-name="Path 25866" d="M22.524 11.512a2.012 2.012 0 1 0-2.012 2.012 2.016 2.016 0 0 0 2.012-2.012zm-3.659 0a1.646 1.646 0 1 1 1.646 1.646 1.649 1.649 0 0 1-1.645-1.646z" transform="translate(-8.652 -3.305)" style="fill:#6d6d6d;stroke:#6d6d6d;stroke-width:.5px"/>
        <path data-name="Path 25867" d="m5.809 12.823-2.3 6.133a.182.182 0 0 0 .023.176.188.188 0 0 0 .157.084h15.334a.188.188 0 0 0 .157-.084.2.2 0 0 0 .023-.176l-2.3-6.133a.192.192 0 0 0-.18-.123h-2.864c.985-1.74 1.905-3.669 1.905-4.792a4.408 4.408 0 1 0-8.817 0c0 1.123.92 3.051 1.905 4.792H5.989a.192.192 0 0 0-.18.123zm1.522-4.915a4.025 4.025 0 1 1 8.05 0c0 1.99-3.262 6.958-4.025 8.092-.763-1.134-4.025-6.1-4.025-8.092zm1.744 5.175a55.723 55.723 0 0 0 2.124 3.366.189.189 0 0 0 .314 0c.084-.123 1.1-1.606 2.124-3.366h2.952l2.154 5.75H3.965l2.154-5.75z" transform="translate(.504 .5)" style="fill:#6d6d6d;stroke:#6d6d6d;stroke-width:.5px"/>
    </g>
</svg>
