<svg xmlns="http://www.w3.org/2000/svg" width="20" height="20" viewBox="0 0 20 20">
    <g data-name="Group 6037">
        <path data-name="Path 302" d="M-259.991-88.39h-1.334v-1.279a.454.454 0 0 0-.454-.454.454.454 0 0 0-.454.454v1.279h-4.175v-1.279a.454.454 0 0 0-.454-.454.454.454 0 0 0-.454.454v1.279h-1.184a2.581 2.581 0 0 0-2.575 2.575v7.115a2.58 2.58 0 0 0 2.575 2.575h8.512a2.581 2.581 0 0 0 2.575-2.575v-7.117a2.581 2.581 0 0 0-2.578-2.573zm-8.512.909h8.512a1.677 1.677 0 0 1 1.666 1.666v.636h-11.844v-.636a1.677 1.677 0 0 1 1.669-1.666zm8.512 10.449h-8.509a1.677 1.677 0 0 1-1.666-1.666v-5.572h11.844v5.57a1.677 1.677 0 0 1-1.669 1.668z" transform="translate(274.076 93.123)" style="fill:#2476b7"/>
    </g>
</svg>
