<svg xmlns="http://www.w3.org/2000/svg" width="60" height="60" viewBox="0 0 60 60">
    <g data-name="Group 123">
        <g data-name="noun_Medical calendar_2501762" transform="translate(4 4.999)">
            <path data-name="Path 88" d="M77.75 70.6h-2.067v2.883H72.8v2.067h2.883v2.883h2.067V75.55h2.883v-2.067H77.75z" transform="translate(-34.214 -33.743)" style="fill:#707070"/>
            <path data-name="Path 89" d="M63.341 8.075h8.431a3.587 3.587 0 0 1 3.59 3.59l.163 19.442a16.808 16.808 0 0 1 1.741.762l-.218-20.2a5.281 5.281 0 0 0-5.276-5.276h-8.431V2.2H61.6v10.553h1.741z" transform="translate(-29.106 -2.2)" style="stroke:#2476b7;stroke-width:.3px;fill:#2476b7"/>
            <path data-name="Rectangle 177" transform="translate(17.844 4.46)" style="stroke:#2476b7;stroke-width:.3px;fill:#2476b7" d="M0 0h12.729v1.741H0z"/>
            <path data-name="Path 90" d="M71.426 59a10.226 10.226 0 1 0 10.227 10.226A10.215 10.215 0 0 0 71.426 59zm0 18.712a8.486 8.486 0 1 1 8.486-8.486 8.5 8.5 0 0 1-8.486 8.486z" transform="translate(-28.924 -28.453)" style="fill:#707070"/>
            <circle data-name="Ellipse 7" cx="1.686" cy="1.686" r="1.686" transform="translate(8.316 15.012)" style="fill:#2476b7"/>
            <circle data-name="Ellipse 8" cx="1.686" cy="1.686" r="1.686" transform="translate(15.282 15.012)" style="fill:#2476b7"/>
            <circle data-name="Ellipse 9" cx="1.686" cy="1.686" r="1.686" transform="translate(22.248 15.012)" style="fill:#2476b7"/>
            <circle data-name="Ellipse 10" cx="1.686" cy="1.686" r="1.686" transform="translate(29.214 15.012)" style="fill:#2476b7"/>
            <circle data-name="Ellipse 11" cx="1.686" cy="1.686" r="1.686" transform="translate(36.18 15.012)" style="fill:#2476b7"/>
            <circle data-name="Ellipse 12" cx="1.686" cy="1.686" r="1.686" transform="translate(8.424 21.6)" style="fill:#2476b7"/>
            <circle data-name="Ellipse 13" cx="1.686" cy="1.686" r="1.686" transform="translate(15.39 21.6)" style="fill:#2476b7"/>
            <circle data-name="Ellipse 14" cx="1.686" cy="1.686" r="1.686" transform="translate(22.302 21.6)" style="fill:#2476b7"/>
            <circle data-name="Ellipse 15" cx="1.686" cy="1.686" r="1.686" transform="translate(29.268 21.6)" style="fill:#2476b7"/>
            <circle data-name="Ellipse 16" cx="1.686" cy="1.686" r="1.686" transform="translate(36.234 21.6)" style="fill:#2476b7"/>
            <circle data-name="Ellipse 17" cx="1.686" cy="1.686" r="1.686" transform="translate(8.478 28.134)" style="fill:#707070"/>
            <circle data-name="Ellipse 18" cx="1.686" cy="1.686" r="1.686" transform="translate(15.444 28.134)" style="fill:#707070"/>
            <circle data-name="Ellipse 19" cx="1.686" cy="1.686" r="1.686" transform="translate(22.41 28.134)" style="fill:#707070"/>
            <circle data-name="Ellipse 20" cx="1.686" cy="1.686" r="1.686" transform="translate(29.376 28.134)" style="fill:#707070"/>
            <circle data-name="Ellipse 21" cx="1.686" cy="1.686" r="1.686" transform="translate(8.532 34.722)" style="fill:#707070"/>
            <circle data-name="Ellipse 22" cx="1.686" cy="1.686" r="1.686" transform="translate(15.498 34.722)" style="fill:#707070"/>
            <circle data-name="Ellipse 23" cx="1.686" cy="1.686" r="1.686" transform="translate(22.464 34.722)" style="fill:#707070"/>
            <path data-name="Path 91" d="M6.476 47.283a3.573 3.573 0 0 1-3.59-3.563V11.595a3.573 3.573 0 0 1 3.59-3.563h8.866v4.7h1.741V2.2h-1.74v4.1H6.476A5.262 5.262 0 0 0 1.2 11.541V43.72a5.262 5.262 0 0 0 5.276 5.237h26.4a8.584 8.584 0 0 1-.87-1.728H6.476z" transform="translate(-1.2 -2.2)" style="stroke:#2476b7;stroke-width:.3px;fill:#2476b7"/>
        </g>
    </g>
</svg>
