<svg data-name="Component 125 – 17" xmlns="http://www.w3.org/2000/svg" width="20" height="20" viewBox="0 0 20 20">
    <path data-name="Rectangle 943" transform="translate(9.601 8.116)" style="fill:#6d6d6d;stroke:#6d6d6d;stroke-width:.2px" d="M0 0h.836v6.12H0z"/>
    <path data-name="Path 1073" d="M24.546 12.25h-2.215a1.463 1.463 0 0 0-1.463 1.463v.552h-4.03a.418.418 0 0 0 0 .836h1.11v10.421a2.508 2.508 0 0 0 2.508 2.508h5.965a2.508 2.508 0 0 0 2.508-2.508V15.1h1.11a.418.418 0 1 0 0-.836h-4.03v-.552a1.463 1.463 0 0 0-1.463-1.463zM21.7 13.713a.627.627 0 0 1 .627-.627h2.218a.627.627 0 0 1 .627.627v.552H21.7zm6.393 1.387v10.422a1.672 1.672 0 0 1-1.672 1.672h-5.965a1.672 1.672 0 0 1-1.672-1.672V15.1z" style="fill:#6d6d6d;stroke:#6d6d6d;stroke-width:.2px" transform="translate(-13.42 -10.25)"/>
    <path data-name="Rectangle 944" transform="translate(7.092 8.116)" style="fill:#6d6d6d;stroke:#6d6d6d;stroke-width:.2px" d="M0 0h.836v6.12H0z"/>
    <path data-name="Rectangle 945" transform="translate(12.109 8.116)" style="fill:#6d6d6d;stroke:#6d6d6d;stroke-width:.2px" d="M0 0h.836v6.12H0z"/>
</svg>
