<svg xmlns="http://www.w3.org/2000/svg" width="20.002" height="20" viewBox="0 0 20.002 20">
    <g data-name="Group 10002">
        <g data-name="Group 9802">
            <path data-name="Subtraction 1" d="M10.762 15.423h-8.4A2.367 2.367 0 0 1 0 13.059V3.608a2.367 2.367 0 0 1 2.363-2.365H3.73V.374A.385.385 0 0 1 4.105 0a.382.382 0 0 1 .369.374v.869h7.715V.374a.373.373 0 1 1 .746 0v.869H14.3a2.368 2.368 0 0 1 2.365 2.365V4.8a6.288 6.288 0 0 0-.746-.156V3.608A1.619 1.619 0 0 0 14.3 1.989h-1.364v1.864a.373.373 0 1 1-.746 0V1.989H4.475v1.864a.372.372 0 1 1-.744 0V1.989H2.363A1.621 1.621 0 0 0 .744 3.608v2.586h10.065a6.5 6.5 0 0 0-.7.747H.744v6.117a1.62 1.62 0 0 0 1.619 1.617h7.711a6.069 6.069 0 0 0 .686.746z" transform="translate(0 2.5)" style="fill:#6d6d6d"/>
            <g data-name="Path 25991" style="fill:#fff">
                <path d="M5 9.5A4.505 4.505 0 0 1 .5 5C.5 2.519 2.519.5 5 .5S9.5 2.519 9.5 5 7.481 9.5 5 9.5z" style="stroke:none" transform="translate(10.002 8.333)"/>
                <path d="M5 1C2.794 1 1 2.794 1 5s1.794 4 4 4 4-1.794 4-4-1.794-4-4-4m0-1a5 5 0 1 1 0 10A5 5 0 0 1 5 0z" style="fill:#6d6d6d;stroke:none" transform="translate(10.002 8.333)"/>
            </g>
            <path data-name="Path 25992" d="M17.94 16.158a.291.291 0 0 1-.193-.048l-1.4-.919a.345.345 0 0 1-.145-.29v-2.514a.387.387 0 0 1 .774 0v2.321l1.209.774a.375.375 0 0 1 .1.483.419.419 0 0 1-.338.193z" transform="translate(-1.663 -1.176)" style="fill:#6d6d6d"/>
        </g>
    </g>
</svg>
