<svg xmlns="http://www.w3.org/2000/svg" width="16.6" height="15.362" viewBox="0 0 16.6 15.362">
    <path data-name="Path 25908" d="M176.652 107.638h-1.363v-.867a.372.372 0 0 0-.743 0v.867h-7.681v-.867a.372.372 0 1 0-.743 0v.867h-1.363a2.369 2.369 0 0 0-2.354 2.354v9.415a2.369 2.369 0 0 0 2.354 2.354h11.893a2.369 2.369 0 0 0 2.354-2.354v-9.415a2.353 2.353 0 0 0-2.354-2.354zm-11.893.743h1.363v1.858a.372.372 0 0 0 .743 0v-1.858h7.681v1.858a.372.372 0 1 0 .743 0v-1.858h1.363a1.607 1.607 0 0 1 1.61 1.61v2.577h-15.114v-2.577a1.607 1.607 0 0 1 1.611-1.611zm11.893 12.636h-11.893a1.607 1.607 0 0 1-1.61-1.61v-6.1h15.114v6.1a1.607 1.607 0 0 1-1.611 1.61z" transform="translate(-162.405 -106.4)" style="fill:#6d6d6d"/>
</svg>
