<svg xmlns="http://www.w3.org/2000/svg" width="16.619" height="18.004" viewBox="0 0 16.619 18.004">
    <path data-name="Path 26050" d="M10.179 18.163a.6.6 0 0 1 .269-.367.559.559 0 0 1 .44-.061l1.343.373a1.543 1.543 0 0 0 1.059-.144l2.782-1.664a.323.323 0 0 0 0-.6L13.3 14.037a1.543 1.543 0 0 0-1.068-.141l-1.352.376a.56.56 0 0 1-.44-.061.6.6 0 0 1-.269-.367l-.15-.581a.623.623 0 0 1 .058-.457.582.582 0 0 1 .352-.28l.868-.238a.6.6 0 0 0 .408-.737l-.232-.9a.622.622 0 0 1 .058-.457.582.582 0 0 1 .353-.28l.559-.156a.56.56 0 0 1 .44.061.6.6 0 0 1 .269.367l.362 1.4a1.667 1.667 0 0 0 .651.882l2.773 1.67c.275.165.5.03.5-.3v-3.332a1.72 1.72 0 0 0-.408-1.026l-.99-1.029a.619.619 0 0 1 0-.849l.411-.427a.563.563 0 0 1 .816 0l.631.653a.563.563 0 0 0 .816 0l.631-.653a.563.563 0 0 1 .816 0l.411.427a.619.619 0 0 1 0 .849l-.99 1.029a1.72 1.72 0 0 0-.408 1.026v3.329c0 .331.226.466.5.3l2.773-1.664a1.668 1.668 0 0 0 .651-.882l.362-1.4a.6.6 0 0 1 .269-.367.56.56 0 0 1 .44-.061l.559.156a.583.583 0 0 1 .353.28.623.623 0 0 1 .058.457l-.232.9a.6.6 0 0 0 .408.737l.868.238a.583.583 0 0 1 .353.28.624.624 0 0 1 .058.457l-.15.581a.6.6 0 0 1-.269.367.56.56 0 0 1-.44.061l-1.349-.375a1.542 1.542 0 0 0-1.059.144L20.547 15.7a.324.324 0 0 0 0 .6l2.773 1.664a1.542 1.542 0 0 0 1.068.141l1.352-.376a.56.56 0 0 1 .44.061.6.6 0 0 1 .269.367l.15.581a.623.623 0 0 1-.058.457.582.582 0 0 1-.353.28l-.868.238a.6.6 0 0 0-.408.737l.232.9a.622.622 0 0 1-.058.457.582.582 0 0 1-.353.28l-.559.156a.561.561 0 0 1-.44-.061.6.6 0 0 1-.269-.367l-.362-1.4a1.667 1.667 0 0 0-.651-.882l-2.773-1.664c-.275-.166-.5-.03-.5.3V21.5a1.72 1.72 0 0 0 .408 1.026l.99 1.029a.619.619 0 0 1 0 .849l-.411.427a.563.563 0 0 1-.816 0l-.631-.653a.563.563 0 0 0-.816 0l-.631.653a.563.563 0 0 1-.816 0l-.411-.427a.619.619 0 0 1 0-.849l.99-1.029a1.72 1.72 0 0 0 .408-1.026v-3.331c0-.331-.226-.466-.5-.3l-2.773 1.664a1.668 1.668 0 0 0-.651.882l-.362 1.4a.6.6 0 0 1-.269.367.559.559 0 0 1-.44.061l-.559-.156a.584.584 0 0 1-.353-.28.623.623 0 0 1-.058-.457l.232-.9a.6.6 0 0 0-.408-.737l-.868-.238a.582.582 0 0 1-.352-.28.623.623 0 0 1-.058-.457z" transform="translate(-10 -7)" style="fill:#43cbf6"/>
</svg>
