<svg xmlns="http://www.w3.org/2000/svg" width="18.111" height="18.077" viewBox="0 0 18.111 18.077">
    <path data-name="Union 40" d="M23242.879 9061.959a7.959 7.959 0 0 1-1.289-1.068 9.053 9.053 0 1 1 12.934 0 12.1 12.1 0 0 1-1.3 1.068 9.072 9.072 0 0 1-5.17 1.617 8.842 8.842 0 0 1-5.175-1.617zm.129-1.518a7.718 7.718 0 0 0 5.049 1.874 7.855 7.855 0 0 0 5.072-1.874 2.8 2.8 0 0 0-2.68-2.008h-4.758a2.813 2.813 0 0 0-2.683 2.008zm7.441-3.3a4.093 4.093 0 0 1 3.654 2.259 7.693 7.693 0 0 0 1.715-4.851 7.763 7.763 0 0 0-15.525 0 7.554 7.554 0 0 0 1.746 4.851 4.061 4.061 0 0 1 3.652-2.259zm-6.275-4.529a3.882 3.882 0 1 1 3.883 3.882 3.892 3.892 0 0 1-3.883-3.88zm1.291 0a2.589 2.589 0 1 0 2.592-2.586 2.6 2.6 0 0 0-2.592 2.588z" transform="translate(-23238.998 -9045.499)" style="fill:#707070"/>
</svg>
