<svg xmlns="http://www.w3.org/2000/svg" width="18" height="18" viewBox="0 0 18 18">
    <g data-name="Group 6525">
        <path data-name="Path 20922" d="M170.8 109.8a9 9 0 1 1 9 9 9 9 0 0 1-9-9zm1.125 0a7.875 7.875 0 1 0 7.875-7.875 7.875 7.875 0 0 0-7.875 7.875z" transform="translate(-170.8 -100.8)" style="fill-rule:evenodd;fill:#707070"/>
        <path data-name="Path 20923" d="m185.7 113.179-3.1 3.495c-.495.564-1.236-.282-.742-.846l2.068-2.355c.1-.116.067-.21-.078-.21h-5.7a.6.6 0 0 1 0-1.2h5.7c.144 0 .18-.094.078-.21l-2.068-2.355c-.495-.564.247-1.41.742-.846l3.094 3.472a.811.811 0 0 1 0 1.052z" transform="translate(-172.821 -103.664)" style="fill:#fc4242;fill-rule:evenodd"/>
    </g>
</svg>
