<svg xmlns="http://www.w3.org/2000/svg" width="30" height="30" viewBox="0 0 30 30">
    <g data-name="Group 9897">
        <path data-name="Union 319" d="M20836.471 21728.523a.473.473 0 0 1-.469-.469v-17.586a.468.468 0 0 1 .469-.465h23.547a.468.468 0 0 1 .469.465v17.586a.473.473 0 0 1-.469.469zm.475-.937h22.6v-16.648h-22.6zm19.73-4.248v-2.8a.472.472 0 0 1 .943 0v2.8a.472.472 0 0 1-.943 0zm-2.3 0v-2.82a.472.472 0 0 1 .943 0v2.82a.472.472 0 0 1-.943 0zm-2.371 0v-3.773a.469.469 0 0 1 .938 0v3.773a.469.469 0 0 1-.937 0zm-2.455 0v-2.486a.472.472 0 0 1 .943 0v2.486a.472.472 0 0 1-.943 0zm-10.77-4.074a4.041 4.041 0 1 1 6.094 3.451.394.394 0 0 1-.062.035 4.045 4.045 0 0 1-6.031-3.486zm.943 0a3.083 3.083 0 0 0 3.1 3.07 3.12 3.12 0 0 0 1.125-.209l-1.529-2.627a.454.454 0 0 1-.064-.234v-3.041a3.08 3.08 0 0 0-2.628 3.041zm5.037 2.4a3.061 3.061 0 0 0 1.129-1.934h-2.254zm-1.465-2.865h2.592a3.094 3.094 0 0 0-2.592-2.57zm6.293-.3a.472.472 0 0 1 .1-.514l2.029-2.012a.48.48 0 0 1 .621-.039l1.969 1.5 1.709-1.7-.689.043a.467.467 0 1 1-.061-.932l1.936-.121a.472.472 0 0 1 .367.137.484.484 0 0 1 .135.359l-.125 1.92a.47.47 0 0 1-.469.438h-.033a.466.466 0 0 1-.436-.5l.043-.691-2.006 1.988a.474.474 0 0 1-.508.1.6.6 0 0 1-.115-.07l-1.963-1.494-1.738 1.723a.466.466 0 0 1-.328.137.461.461 0 0 1-.434-.281z" transform="translate(-20833 -21704.004)" style="fill:#8c8c8c;stroke:#8c8c8c;stroke-width:.4px"/>
    </g>
</svg>
