<svg xmlns="http://www.w3.org/2000/svg" width="18" height="18" viewBox="0 0 18 18">
    <g data-name="Group 6525">
        <path data-name="Path 20922" d="M170.8 109.8a9 9 0 1 1 9 9 9 9 0 0 1-9-9zm1.125 0a7.875 7.875 0 1 0 7.875-7.875 7.875 7.875 0 0 0-7.875 7.875z" transform="translate(-170.8 -100.8)" style="fill-rule:evenodd;fill:#707070"/>
        <path data-name="Path 20934" d="M-.809-2.6A4.174 4.174 0 0 1-.7-3.593a2.148 2.148 0 0 1 .321-.7 6.428 6.428 0 0 1 .663-.762l.2-.2q.324-.33.5-.543a1.962 1.962 0 0 0 .286-.492 1.682 1.682 0 0 0 .114-.641 1.481 1.481 0 0 0-.352-1.051 1.308 1.308 0 0 0-1.016-.372 1.776 1.776 0 0 0-.711.14 1.185 1.185 0 0 0-.521.428 1.227 1.227 0 0 0-.2.708H-2.6A2.188 2.188 0 0 1-2.247-8.3a2.236 2.236 0 0 1 .936-.8 3.094 3.094 0 0 1 1.327-.269 2.981 2.981 0 0 1 1.371.292 2.01 2.01 0 0 1 .87.835 2.629 2.629 0 0 1 .3 1.285 2.416 2.416 0 0 1-.216 1.009 3.841 3.841 0 0 1-.552.879 10.262 10.262 0 0 1-.819.86 1.6 1.6 0 0 0-.46.7 2.921 2.921 0 0 0-.13.911zm.647 1.339a.682.682 0 0 1 .514.19.666.666 0 0 1 .184.481.644.644 0 0 1-.184.476.7.7 0 0 1-.514.184.7.7 0 0 1-.514-.184A.644.644 0 0 1-.86-.59a.666.666 0 0 1 .184-.482.682.682 0 0 1 .514-.191z" transform="translate(9.001 14)" style="fill:#707070"/>
    </g>
</svg>
