<svg width="317" height="59" viewBox="0 0 317 59" fill="none" xmlns="http://www.w3.org/2000/svg">
<g filter="url(#filter0_i_114_345)">
<path d="M15.7091 11.6049L23.42 11.6104C25.3158 11.6117 26.9744 12.0595 28.3956 12.9538C30.6915 14.4137 31.8383 16.7023 31.8361 19.8195C31.8343 22.2258 31.0582 24.1848 29.5077 25.6968C27.9024 27.2451 25.8511 28.0184 23.3537 28.0166L15.6974 28.0112L15.6979 27.3002L17.8854 27.3018L17.8961 12.3174L15.7086 12.3158L15.7091 11.6049ZM23.3648 12.3213L20.5211 12.3193L20.5104 27.3036L23.4088 27.3057C27.0547 27.2901 28.8885 24.7575 28.9103 19.7081C28.9113 18.3409 28.7754 17.1559 28.5027 16.1531C27.7936 13.6005 26.081 12.3232 23.3648 12.3213ZM39.7057 27.3446C39.8151 27.3447 39.9062 27.3539 39.9791 27.3722C40.2525 27.4088 40.3891 27.6277 40.3888 28.0287L34.0177 28.0242L34.0182 27.3406C34.5651 27.341 34.9753 27.3048 35.2487 27.2321C35.814 27.0684 36.0969 26.5673 36.0975 25.7288L36.1036 17.0608L34.0255 17.0593L34.026 16.3758L38.4283 16.3789L38.4205 27.3437L39.7057 27.3446ZM38.7319 12.4689C38.7317 12.7059 38.6769 12.9429 38.5673 13.1798C38.2752 13.7811 37.8011 14.0816 37.1448 14.0811C36.9078 14.0809 36.68 14.0352 36.4613 13.9439C35.8417 13.6518 35.5322 13.1594 35.5327 12.4667C35.5329 12.2297 35.5877 11.9927 35.6973 11.7558C35.9894 11.1545 36.4726 10.8541 37.1471 10.8545C37.3841 10.8547 37.621 10.9096 37.8579 11.0191C38.4411 11.3294 38.7324 11.8127 38.7319 12.4689ZM46.3774 27.5681C47.6352 27.569 48.4558 27.1777 48.8392 26.3941C48.967 26.139 49.031 25.8747 49.0312 25.6013C49.0317 24.7992 48.4671 24.1152 47.3373 23.5493C47.1004 23.4215 46.7086 23.2389 46.1619 23.0016C44.704 22.3807 43.7292 21.7967 43.2374 21.2495C42.7274 20.6658 42.4727 19.982 42.4732 19.1982C42.4741 17.9039 43.1857 16.9838 44.608 16.438C45.2826 16.2015 46.0119 16.0835 46.7957 16.0841C48.0353 16.0849 49.0833 16.3409 49.9397 16.8519C49.9401 16.3233 50.0679 16.0226 50.3232 15.9498C50.4143 15.9317 50.5328 15.9227 50.6787 15.9228L50.6762 19.3407L49.938 19.3402C49.9027 17.6631 48.9736 16.8148 47.1507 16.7952C45.8382 16.7943 45.0176 17.1948 44.6889 17.9966C44.6158 18.2153 44.5792 18.434 44.5791 18.6528C44.5785 19.4366 45.134 20.1024 46.2456 20.6501C46.5007 20.7779 46.8925 20.9513 47.421 21.1704C48.8972 21.7731 49.8811 22.3389 50.373 22.8679C50.9012 23.4698 51.165 24.1809 51.1644 25.0012C51.1633 26.5142 50.3696 27.5163 48.7834 28.0073C48.1634 28.2074 47.4889 28.3072 46.7597 28.3067C45.3925 28.2875 44.2079 27.9676 43.2057 27.3471C43.2054 27.8211 43.0867 28.0944 42.8496 28.1672C42.7403 28.1853 42.6126 28.1944 42.4668 28.1943L42.4698 24.038L43.2627 24.0386C43.2975 26.3719 44.3358 27.5485 46.3774 27.5681ZM53.2445 22.2957C53.2454 20.9649 53.547 19.7803 54.1493 18.7416C55.1896 16.9741 56.8582 16.0912 59.1551 16.0928C60.2124 16.0936 61.1784 16.3222 62.0531 16.7785C63.1828 17.3809 63.7474 18.1287 63.7468 19.0219C63.7467 19.1313 63.7284 19.2497 63.6918 19.3773C63.5274 19.9605 63.0988 20.2428 62.4061 20.2241C62.1327 20.2056 61.9048 20.1417 61.7226 20.0322C61.4129 19.8497 61.2036 19.3756 61.0947 18.6099C61.0585 18.2999 61.0222 18.0812 60.9858 17.9535C60.7859 17.1695 60.2119 16.7772 59.264 16.7765C58.863 16.7762 58.4801 16.8489 58.1154 16.9945C56.602 17.5949 55.8442 19.3079 55.8422 22.1335C55.8413 23.446 56.0592 24.5581 56.4961 25.4699C57.1696 26.8558 58.1808 27.5492 59.5298 27.5501C59.7668 27.5503 60.0037 27.5323 60.2408 27.496C61.681 27.26 62.7206 26.4769 63.3596 25.1466L64.0704 25.3659C63.9243 25.7121 63.7327 26.0401 63.4955 26.3498C62.5284 27.6617 61.0878 28.3169 59.1738 28.3155C57.8977 28.3146 56.7677 28.0039 55.7838 27.3834C54.0893 26.3067 53.2428 24.6108 53.2445 22.2957ZM67.8461 22.1967C67.8618 25.7878 69.0089 27.6025 71.2875 27.6405C73.4933 27.6239 74.6066 25.7744 74.6274 22.0921C74.6117 18.5921 73.4827 16.8231 71.2406 16.785C68.9984 16.8017 67.8669 18.6056 67.8461 22.1967ZM71.3231 16.1015C72.6174 16.1024 73.7747 16.4496 74.795 17.143C76.4348 18.2744 77.2539 19.9521 77.2524 22.176C77.2512 23.8531 76.7215 25.2655 75.6634 26.4132C74.4958 27.6884 73.0097 28.3254 71.205 28.3241C69.8925 28.3231 68.7079 27.9395 67.6511 27.1731C66.0478 26.0053 65.2469 24.3094 65.2485 22.0855C65.2497 20.4631 65.7611 19.0962 66.7827 17.985C67.9685 16.728 69.4819 16.1002 71.3231 16.1015ZM83.8732 17.0948L81.9864 17.0935L85.3706 26.2287L88.795 17.0983L86.7169 17.0968L86.7174 16.4132L90.9557 16.4163C90.9556 16.5803 90.9464 16.7079 90.9281 16.799C90.8732 16.9995 90.6635 17.0996 90.2989 17.0994C90.2078 17.0993 90.1166 17.1084 90.0255 17.1265C89.7338 17.1992 89.4783 17.4998 89.2592 18.0283L85.3965 28.1975L84.9043 28.1971C84.5762 28.1969 84.3028 28.1511 84.0841 28.0598C83.6832 27.8955 83.2917 27.2936 82.9096 26.2543L79.5802 17.0918L78.3771 17.0909L78.3776 16.4073L83.8736 16.4112L83.8732 17.0948ZM97.8734 16.804C97.4359 16.8037 97.0256 16.9036 96.6427 17.1039C95.4027 17.741 94.7454 19.1351 94.671 21.2861L97.3506 21.37C98.1527 21.3888 98.7816 21.3437 99.2374 21.2346C100.04 21.0347 100.441 20.4881 100.442 19.5949C100.442 19.2121 100.388 18.8474 100.278 18.501C99.9146 17.3705 99.113 16.8049 97.8734 16.804ZM102.707 25.4207C102.598 25.6576 102.479 25.8945 102.351 26.1314C101.42 27.6073 99.9342 28.3445 97.8925 28.3431C96.6712 28.3422 95.5776 28.0406 94.6119 27.4384C92.9174 26.3434 92.0709 24.6293 92.0726 22.296C92.0735 20.9652 92.366 19.7897 92.9501 18.7692C93.9904 17.0017 95.6134 16.1188 97.8192 16.1204C98.9858 16.1212 100.025 16.368 100.936 16.8609C102.248 17.6092 102.903 18.6305 102.902 19.9248C102.902 20.5445 102.692 21.0366 102.272 21.4009C101.634 21.9108 100.148 22.1468 97.8149 22.1086L94.6704 22.0517C94.6882 22.7262 94.7424 23.346 94.8332 23.9112C95.2689 26.3542 96.4529 27.5764 98.3852 27.5778C98.6587 27.578 98.9412 27.5508 99.233 27.4964C100.509 27.2238 101.439 26.4498 102.024 25.1741L102.707 25.4207ZM110.854 27.3953C110.963 27.3953 111.055 27.4045 111.128 27.4228C111.401 27.4594 111.538 27.6783 111.537 28.0793L104.592 28.0744L104.592 27.3908C105.139 27.3912 105.54 27.355 105.796 27.2823C106.288 27.1186 106.534 26.6174 106.535 25.7789L106.541 17.1109L104.6 17.1096L104.6 16.426L108.729 16.4289L108.837 19.054C109.056 18.5437 109.348 18.0882 109.713 17.6874C110.588 16.7401 111.591 16.2669 112.721 16.2677C112.922 16.2678 113.113 16.2862 113.296 16.3228C114.134 16.5057 114.553 17.0164 114.552 17.8549C114.552 17.9825 114.534 18.1192 114.497 18.265C114.315 18.83 113.923 19.1123 113.321 19.1119C113.193 19.1118 113.066 19.0934 112.938 19.0569C112.647 18.9655 112.355 18.6646 112.064 18.1539C111.809 17.698 111.545 17.47 111.271 17.4698C111.053 17.4696 110.788 17.597 110.478 17.852C109.548 18.6352 109.018 19.8106 108.89 21.3782L108.885 27.3939L110.854 27.3953ZM134.972 26.8655C133.294 27.8487 131.525 28.3488 129.666 28.3657C127.132 28.3639 125.082 27.5239 123.515 25.8457C122.022 24.2222 121.276 22.2165 121.277 19.8285C121.279 17.8597 121.818 16.1192 122.894 14.6069C124.445 12.4752 126.679 11.4104 129.596 11.4125C129.979 11.4128 130.362 11.4313 130.744 11.468C132.458 11.6515 133.834 12.1447 134.872 12.9475C134.873 12.51 134.891 12.1819 134.928 11.9632C135.019 11.6898 135.274 11.5532 135.694 11.5535L135.772 16.6669L135.061 16.6664C134.188 13.7126 132.421 12.2166 129.759 12.1782C128.812 12.1776 127.955 12.4139 127.189 12.8873C125.292 14.0527 124.342 16.3762 124.34 19.858C124.339 21.1705 124.475 22.3464 124.748 23.3856C125.475 26.1934 127.105 27.5982 129.639 27.6C132.392 27.5838 134.225 26.0538 135.138 23.0102L135.849 23.0107L135.846 28.2333C135.627 28.2332 135.463 28.2148 135.354 28.1783C135.098 28.0688 134.971 27.6312 134.972 26.8655ZM143.612 27.4186C143.703 27.4186 143.794 27.4278 143.885 27.4461C144.141 27.4827 144.268 27.7016 144.268 28.1026L137.733 28.098L137.733 27.4144C138.335 27.4148 138.781 27.3696 139.073 27.2786C139.565 27.1149 139.812 26.6229 139.812 25.8026L139.823 11.0096L137.745 11.0081L137.745 10.3245L142.148 10.3277L142.135 27.4175L143.612 27.4186ZM148.62 22.2542C148.635 25.8453 149.782 27.6599 152.061 27.698C154.267 27.6813 155.38 25.8319 155.401 22.1496C155.385 18.6496 154.256 16.8806 152.014 16.8425C149.772 16.8591 148.64 18.663 148.62 22.2542ZM152.097 16.159C153.391 16.1599 154.548 16.5071 155.568 17.2005C157.208 18.3319 158.027 20.0095 158.026 22.2335C158.025 23.9106 157.495 25.323 156.437 26.4707C155.269 27.7459 153.783 28.3828 151.978 28.3815C150.666 28.3806 149.481 27.997 148.425 27.2306C146.821 26.0628 146.02 24.3669 146.022 22.1429C146.023 20.5205 146.534 19.1537 147.556 18.0425C148.742 16.7855 150.255 16.1577 152.097 16.159ZM164.284 27.652C165.541 27.6529 166.362 27.2616 166.745 26.478C166.873 26.2229 166.937 25.9586 166.937 25.6852C166.938 24.8831 166.373 24.1991 165.244 23.6332C165.007 23.5054 164.615 23.3228 164.068 23.0855C162.61 22.4646 161.635 21.8806 161.144 21.3334C160.634 20.7497 160.379 20.0659 160.379 19.282C160.38 17.9878 161.092 17.0677 162.514 16.5218C163.189 16.2853 163.918 16.1674 164.702 16.1679C165.942 16.1688 166.99 16.4248 167.846 16.9358C167.846 16.4072 167.974 16.1065 168.229 16.0337C168.321 16.0156 168.439 16.0065 168.585 16.0066L168.582 19.4246L167.844 19.4241C167.809 17.747 166.88 16.8987 165.057 16.8791C163.744 16.8782 162.924 17.2787 162.595 18.0805C162.522 18.2992 162.485 18.5179 162.485 18.7367C162.485 19.5205 163.04 20.1863 164.152 20.734C164.407 20.8617 164.799 21.0352 165.327 21.2543C166.803 21.8569 167.787 22.4227 168.279 22.9517C168.807 23.5537 169.071 24.2648 169.071 25.0851C169.07 26.5981 168.276 27.6002 166.69 28.0912C166.07 28.2913 165.395 28.3911 164.666 28.3906C163.299 28.3714 162.114 28.0515 161.112 27.431C161.112 27.905 160.993 28.1783 160.756 28.2511C160.646 28.2692 160.519 28.2782 160.373 28.2781L160.376 24.1219L161.169 24.1225C161.204 26.4558 162.242 27.6323 164.284 27.652ZM176.951 16.8602C176.514 16.8599 176.104 16.9599 175.721 17.1602C174.481 17.7973 173.824 19.1914 173.749 21.3423L176.429 21.4263C177.231 21.4451 177.86 21.4 178.316 21.2909C179.118 21.091 179.519 20.5444 179.52 19.6511C179.52 19.2683 179.466 18.9037 179.357 18.5573C178.993 17.4268 178.191 16.8611 176.951 16.8602ZM181.785 25.477C181.676 25.7139 181.557 25.9508 181.429 26.1877C180.498 27.6636 179.012 28.4008 176.971 28.3993C175.749 28.3985 174.656 28.0969 173.69 27.4946C171.995 26.3997 171.149 24.6855 171.151 22.3522C171.152 21.0215 171.444 19.8459 172.028 18.8255C173.069 17.058 174.692 16.175 176.897 16.1766C178.064 16.1774 179.103 16.4243 180.014 16.9171C181.326 17.6654 181.981 18.6867 181.981 19.981C181.98 20.6008 181.77 21.0928 181.351 21.4571C180.712 21.9671 179.226 22.203 176.893 22.1649L173.749 22.108C173.766 22.7825 173.821 23.4023 173.911 23.9675C174.347 26.4105 175.531 27.6327 177.463 27.634C177.737 27.6342 178.019 27.6071 178.311 27.5526C179.587 27.2801 180.518 26.506 181.102 25.2304L181.785 25.477ZM202.135 16.7141L201.534 16.7137L201.097 15.3188C201.097 15.2824 201.088 15.2459 201.07 15.2094C200.506 13.3679 199.522 12.4466 198.119 12.4456L193.99 12.4427L193.985 19.2786L199.563 19.2826L199.562 20.0756L193.984 20.0716L193.979 27.427L198.108 27.43C198.381 27.4302 198.646 27.3939 198.901 27.3212C199.886 27.0484 200.615 26.1284 201.091 24.561L201.529 23.1668L202.131 23.1672L201.99 28.1437L189.166 28.1346L189.167 27.4236L191.354 27.4252L191.365 12.4408L189.177 12.4393L189.178 11.7283L202.002 11.7374L202.135 16.7141ZM208.69 27.6836C209.948 27.6845 210.768 27.2932 211.152 26.5096C211.279 26.2545 211.343 25.9902 211.344 25.7167C211.344 24.9147 210.78 24.2307 209.65 23.6648C209.413 23.537 209.021 23.3544 208.474 23.117C207.016 22.4962 206.042 21.9122 205.55 21.365C205.04 20.7813 204.785 20.0975 204.786 19.3136C204.787 18.0194 205.498 17.0993 206.92 16.5534C207.595 16.3169 208.324 16.199 209.108 16.1995C210.348 16.2004 211.396 16.4564 212.252 16.9674C212.253 16.4387 212.38 16.1381 212.636 16.0653C212.727 16.0472 212.845 16.0381 212.991 16.0382L212.989 19.4562L212.25 19.4557C212.215 17.7786 211.286 16.9302 209.463 16.9107C208.151 16.9098 207.33 17.3102 207.001 18.1121C206.928 18.3308 206.892 18.5495 206.892 18.7683C206.891 19.5521 207.446 20.2179 208.558 20.7655C208.813 20.8933 209.205 21.0668 209.733 21.2859C211.21 21.8885 212.194 22.4543 212.685 22.9833C213.214 23.5853 213.477 24.2964 213.477 25.1167C213.476 26.6297 212.682 27.6318 211.096 28.1228C210.476 28.3229 209.801 28.4227 209.072 28.4222C207.705 28.403 206.52 28.0831 205.518 27.4626C205.518 27.9366 205.399 28.2099 205.162 28.2827C205.053 28.3008 204.925 28.3098 204.779 28.3097L204.782 24.1535L205.575 24.154C205.61 26.4874 206.648 27.6639 208.69 27.6836ZM215.557 22.4111C215.558 21.0804 215.859 19.8957 216.462 18.8571C217.502 17.0896 219.171 16.2067 221.468 16.2083C222.525 16.2091 223.491 16.4376 224.366 16.894C225.495 17.4963 226.06 18.2441 226.059 19.1374C226.059 19.2467 226.041 19.3652 226.004 19.4928C225.84 20.076 225.411 20.3583 224.719 20.3395C224.445 20.3211 224.217 20.2572 224.035 20.1476C223.725 19.9651 223.516 19.491 223.407 18.7253C223.371 18.4154 223.335 18.1966 223.298 18.069C223.098 17.285 222.524 16.8927 221.576 16.892C221.175 16.8917 220.793 16.9644 220.428 17.1099C218.914 17.7104 218.157 19.4234 218.155 22.2489C218.154 23.5614 218.372 24.6736 218.809 25.5853C219.482 26.9712 220.493 27.6647 221.842 27.6656C222.079 27.6658 222.316 27.6477 222.553 27.6114C223.993 27.3755 225.033 26.5924 225.672 25.2621L226.383 25.4814C226.237 25.8276 226.045 26.1556 225.808 26.4653C224.841 27.7771 223.4 28.4324 221.486 28.431C220.21 28.4301 219.08 28.1194 218.096 27.4989C216.402 26.4222 215.555 24.7263 215.557 22.4111ZM237.182 28.4422C235.869 28.423 235.095 27.593 234.859 25.9522C234.695 26.3531 234.448 26.7267 234.12 27.0728C233.244 27.9836 232.141 28.4386 230.81 28.4376C230.264 28.4372 229.753 28.3457 229.279 28.1631C228.022 27.67 227.394 26.7034 227.395 25.2633C227.395 25.0263 227.413 24.8076 227.45 24.6071C227.834 22.5293 230.296 21.4828 234.835 21.4678L234.836 19.7452C234.819 17.8858 234 16.9373 232.377 16.8997C231.685 16.8992 231.165 17.1358 230.818 17.6095C230.763 17.7006 230.608 18.1015 230.352 18.8123C230.133 19.3955 229.778 19.6869 229.285 19.6865C229.176 19.6865 229.058 19.6773 228.93 19.6589C228.383 19.5309 228.11 19.1753 228.11 18.592C228.111 18.2821 228.22 17.9722 228.439 17.6625C229.133 16.6968 230.537 16.2148 232.651 16.2163C235.623 16.2366 237.125 17.6322 237.16 20.4031L237.156 26.1726C237.173 27.0659 237.41 27.5309 237.866 27.5676C238.431 27.5498 238.778 26.8847 238.906 25.5723L239.617 25.6001C239.599 25.91 239.571 26.2017 239.534 26.4751C239.278 27.7874 238.494 28.4431 237.182 28.4422ZM231.823 27.3173C232.151 27.3175 232.497 27.2448 232.862 27.0992C233.865 26.626 234.522 25.7606 234.833 24.503L234.834 22.2335C233.558 22.2508 232.565 22.3412 231.854 22.5048C230.505 22.8319 229.83 23.6062 229.829 24.8276C229.828 25.0281 229.837 25.2195 229.856 25.4018C230.019 26.6779 230.675 27.3164 231.823 27.3173ZM244.725 32.6858L246.53 32.6871C246.639 32.6872 246.731 32.6963 246.803 32.7146C247.077 32.7513 247.213 32.9701 247.213 33.3712L240.432 33.3663L240.432 32.6828C240.979 32.6831 241.389 32.6379 241.663 32.5469C242.137 32.3832 242.374 31.8912 242.375 31.0709L242.385 17.2076L240.443 17.2062L240.444 16.5226L244.545 16.5255L244.68 19.4241C244.845 18.9502 245.073 18.5129 245.365 18.112C246.259 16.8549 247.526 16.2269 249.167 16.228C250.279 16.2288 251.236 16.585 252.037 17.2965C253.221 18.3728 253.813 19.9592 253.811 22.0556C253.81 23.8785 253.298 25.382 252.277 26.5662C251.182 27.8232 249.805 28.4511 248.146 28.45C246.816 28.3761 245.677 27.9104 244.729 27.053L244.725 32.6858ZM248.182 17.3758C247.562 17.3753 246.987 17.5754 246.459 17.9761C245.291 18.8867 244.707 20.5178 244.705 22.8694C244.704 23.9084 244.831 24.8018 245.086 25.5493C245.614 27.0263 246.543 27.7652 247.873 27.7662C248.293 27.7665 248.685 27.6847 249.049 27.5209C250.49 26.8657 251.211 25.1435 251.213 22.3545C251.214 21.7894 251.178 21.2516 251.105 20.7411C250.778 18.4987 249.804 17.3769 248.182 17.3758ZM261.69 16.9205C261.252 16.9202 260.842 17.0202 260.459 17.2204C259.219 17.8576 258.562 19.2516 258.487 21.4026L261.167 21.4866C261.969 21.5054 262.598 21.4602 263.054 21.3512C263.856 21.1512 264.257 20.6046 264.258 19.7114C264.258 19.3286 264.204 18.964 264.095 18.6176C263.731 17.4871 262.929 16.9214 261.69 16.9205ZM266.523 25.5373C266.414 25.7742 266.295 26.011 266.167 26.2479C265.237 27.7238 263.751 28.4611 261.709 28.4596C260.488 28.4587 259.394 28.1572 258.428 27.5549C256.734 26.46 255.887 24.7458 255.889 22.4125C255.89 21.0818 256.182 19.9062 256.766 18.8858C257.807 17.1183 259.43 16.2353 261.636 16.2369C262.802 16.2377 263.841 16.4846 264.752 16.9774C266.064 17.7257 266.72 18.747 266.719 20.0413C266.718 20.6611 266.508 21.1531 266.089 21.5174C265.45 22.0274 263.965 22.2633 261.631 22.2252L258.487 22.1683C258.505 22.8427 258.559 23.4626 258.65 24.0277C259.085 26.4708 260.269 27.693 262.202 27.6943C262.475 27.6945 262.758 27.6674 263.049 27.6129C264.326 27.3404 265.256 26.5663 265.84 25.2907L266.523 25.5373ZM272.811 27.7292C274.069 27.7301 274.889 27.3388 275.273 26.5552C275.401 26.3001 275.465 26.0358 275.465 25.7624C275.465 24.9603 274.901 24.2763 273.771 23.7104C273.534 23.5826 273.142 23.4 272.595 23.1627C271.138 22.5418 270.163 21.9578 269.671 21.4106C269.161 20.8269 268.906 20.1431 268.907 19.3593C268.908 18.065 269.619 17.1449 271.042 16.5991C271.716 16.3626 272.445 16.2446 273.229 16.2451C274.469 16.246 275.517 16.502 276.373 17.013C276.374 16.4844 276.501 16.1837 276.757 16.1109C276.848 16.0928 276.966 16.0837 277.112 16.0838L277.11 19.5018L276.372 19.5013C276.336 17.8242 275.407 16.9759 273.584 16.9563C272.272 16.9554 271.451 17.3559 271.122 18.1577C271.049 18.3764 271.013 18.5951 271.013 18.8139C271.012 19.5977 271.568 20.2635 272.679 20.8112C272.934 20.9389 273.326 21.1124 273.855 21.3315C275.331 21.9341 276.315 22.4999 276.807 23.0289C277.335 23.6309 277.599 24.342 277.598 25.1623C277.597 26.6753 276.803 27.6774 275.217 28.1684C274.597 28.3685 273.922 28.4683 273.193 28.4678C271.826 28.4486 270.641 28.1287 269.639 27.5082C269.639 27.9822 269.52 28.2555 269.283 28.3283C269.174 28.3464 269.046 28.3555 268.9 28.3553L268.903 24.1991L269.696 24.1997C269.731 26.533 270.769 27.7095 272.811 27.7292Z" fill="black"/>
<path d="M298 46L271.75 58.1243V33.8756L298 46Z" fill="#D9D9D9"/>
</g>
<defs>
<filter id="filter0_i_114_345" x="0" y="0" width="316.031" height="62.1244" filterUnits="userSpaceOnUse" color-interpolation-filters="sRGB">
<feFlood flood-opacity="0" result="BackgroundImageFix"/>
<feBlend mode="normal" in="SourceGraphic" in2="BackgroundImageFix" result="shape"/>
<feColorMatrix in="SourceAlpha" type="matrix" values="0 0 0 0 0 0 0 0 0 0 0 0 0 0 0 0 0 0 127 0" result="hardAlpha"/>
<feOffset dy="4"/>
<feGaussianBlur stdDeviation="2"/>
<feComposite in2="hardAlpha" operator="arithmetic" k2="-1" k3="1"/>
<feColorMatrix type="matrix" values="0 0 0 0 0 0 0 0 0 0 0 0 0 0 0 0 0 0 0.25 0"/>
<feBlend mode="normal" in2="shape" result="effect1_innerShadow_114_345"/>
</filter>
</defs>
</svg>
