<svg data-name="Component 91 – 5" xmlns="http://www.w3.org/2000/svg" width="24" height="24" viewBox="0 0 24 24">
    <g data-name="Group 1824">
        <path data-name="Rectangle 941" transform="translate(6 18.48)" style="fill:#6d6d6d;stroke:#6d6d6d;stroke-width:.3px" d="M0 0h11.984v.749H0z"/>
        <path data-name="Path 1066" d="m14.753 2.226-.794-.794a1.687 1.687 0 0 0-2.383 0l-7.15 7.149a.374.374 0 0 0-.1.162L3.271 12.45a.375.375 0 0 0 .463.464l3.707-1.059a.37.37 0 0 0 .162-.1l7.149-7.151a1.684 1.684 0 0 0 0-2.383zM7.142 11.16l-2.966.847.847-2.966 5.757-5.757L12.9 5.4zm7.081-7.08-.794.794-2.119-2.119.794-.794a.938.938 0 0 1 1.324 0l.794.794a.937.937 0 0 1 0 1.324z" transform="translate(3.486 4.061)" style="fill:#6d6d6d;stroke:#6d6d6d;stroke-width:.3px"/>
    </g>
</svg>
