<svg width="25" height="24" viewBox="0 0 25 24" fill="none" xmlns="http://www.w3.org/2000/svg">
<path d="M2.5 9.65359L11.5033 2.45095C12.2548 1.84972 13.3227 1.84972 14.0742 2.45095L23.0775 9.65359" stroke="#7D848D" stroke-width="1.5" stroke-linecap="round" stroke-linejoin="round"/>
<path d="M10.1936 3.53109L6.07807 6.87494C5.33085 7.48206 4.95723 7.78562 4.7575 8.20525C4.55777 8.62487 4.55777 9.10626 4.55777 10.0691V13.769C4.55777 17.6491 4.55777 19.5892 5.76317 20.7946C6.96858 22 8.90864 22 12.7888 22C16.6689 22 18.609 22 19.8144 20.7946C21.0198 19.5892 21.0198 17.6491 21.0198 13.769V10.0691C21.0198 9.10626 21.0198 8.62487 20.8201 8.20525C20.6203 7.78562 20.2467 7.48206 19.4995 6.87494L15.384 3.53109C14.1409 2.52109 13.5194 2.01608 12.7888 2.01608C12.0582 2.01608 11.4366 2.52109 10.1936 3.53109Z" stroke="#7D848D" stroke-width="1.5"/>
<path d="M10.4736 16.0841H15.1036" stroke="#7D848D" stroke-width="1.5" stroke-linecap="round"/>
</svg>
