<svg xmlns="http://www.w3.org/2000/svg" width="12.129" height="14.334" viewBox="0 0 12.129 14.334">
    <path data-name="Path 25965" d="m20.395 10.129-.777-.929.277 1.186a3.518 3.518 0 0 1 0 1.459 7.346 7.346 0 0 0-3.607-4.564L15.751 7l.118.6a6.64 6.64 0 0 1-1.938 5.438 2.1 2.1 0 0 0-.881-1.644l-.419-.273-.026.5a6.26 6.26 0 0 1-.762 2.6 5.116 5.116 0 0 0-.829 2.313c-.113 1.4.341 3.366 3.136 4.766l.061.029H15.4l-.061-.032a3.016 3.016 0 0 1-1.733-2.953 2.979 2.979 0 0 1 .456-1.33 3.486 3.486 0 0 0 .387-1.368l.026-.516.422.288a1.7 1.7 0 0 1 .6.822 3.057 3.057 0 0 0 .687-2.744l-.208-.69.621.34a4.089 4.089 0 0 1 1.88 2.286 3.385 3.385 0 0 0 .127-.537l.084-.675.425.525c1.175 1.456 1.623 2.809 1.325 4.027a4.129 4.129 0 0 1-2.258 2.536l-.052.02h1.112l.052-.018a6.442 6.442 0 0 0 3.687-4c.523-2.1-.346-4.523-2.587-7.191z" transform="translate(-11 -7)" />
</svg>
