<svg xmlns="http://www.w3.org/2000/svg" width="15.231" height="18" viewBox="0 0 15.231 18">
    <path data-name="Path 24995" d="m22.8 10.929-.975-1.165.348 1.489a4.418 4.418 0 0 1 0 1.832 9.225 9.225 0 0 0-4.529-5.731L16.966 7l.149.752a8.338 8.338 0 0 1-2.433 6.829 2.631 2.631 0 0 0-1.106-2.064l-.526-.343-.033.634a7.861 7.861 0 0 1-.957 3.265 6.425 6.425 0 0 0-1.041 2.9c-.141 1.758.428 4.227 3.938 5.985l.076.037h1.494l-.076-.041a3.787 3.787 0 0 1-2.176-3.708 3.741 3.741 0 0 1 .573-1.67 4.377 4.377 0 0 0 .486-1.717l.033-.649.529.361a2.14 2.14 0 0 1 .754 1.032 3.839 3.839 0 0 0 .863-3.446l-.261-.866.78.428a5.135 5.135 0 0 1 2.36 2.881 4.251 4.251 0 0 0 .159-.674l.105-.848.533.66c1.476 1.828 2.038 3.527 1.664 5.056a5.185 5.185 0 0 1-2.836 3.184l-.063.022h1.4l.065-.022c.152-.063 3.757-1.515 4.63-5.02.657-2.643-.435-5.68-3.249-9.03z" transform="translate(-11 -7)" style="fill:#ff5003"/>
</svg>
