<?xml version="1.0" standalone="no"?>
<!DOCTYPE svg PUBLIC "-//W3C//DTD SVG 20010904//EN"
 "http://www.w3.org/TR/2001/REC-SVG-20010904/DTD/svg10.dtd">
<svg version="1.0" xmlns="http://www.w3.org/2000/svg"
 width="225.000000pt" height="225.000000pt" viewBox="0 0 225.000000 225.000000"
 preserveAspectRatio="xMidYMid meet">

<g transform="translate(0.000000,225.000000) scale(0.100000,-0.100000)"
fill="#808080" stroke="none">
<path d="M950 1985 c-285 -57 -536 -268 -640 -537 -224 -581 196 -1198 815
-1198 619 0 1039 617 815 1198 -105 273 -357 482 -648 538 -90 17 -254 17
-342 -1z m430 -94 c242 -82 427 -267 512 -511 32 -92 33 -100 33 -255 0 -155
-1 -163 -33 -255 -85 -244 -268 -427 -512 -512 -92 -32 -100 -33 -255 -33
-155 0 -163 1 -255 33 -244 85 -427 268 -512 512 -32 92 -33 100 -33 255 0
155 1 163 33 255 94 269 295 454 577 531 57 15 96 18 210 16 127 -3 149 -6
235 -36z"/>
<path d="M1102 1498 c-8 -8 -12 -62 -12 -175 l0 -163 -166 -2 c-143 -3 -168
-5 -177 -20 -8 -12 -7 -21 2 -32 11 -13 40 -16 177 -16 l164 0 2 -166 c3 -143
5 -168 20 -177 12 -8 21 -7 32 2 13 11 16 40 16 177 l0 164 166 2 c143 3 168
5 177 20 8 12 7 21 -2 32 -11 13 -40 16 -177 16 l-164 0 0 163 c0 161 -5 187
-35 187 -6 0 -16 -5 -23 -12z"/>
</g>
</svg>
