<svg data-name="Component 13 – 48" xmlns="http://www.w3.org/2000/svg"  width="30" height="30" viewBox="10 0 29 35">
    <g data-name="Group 2226">
        <path data-name="Path 24984" d="M24.174 23.756v-1.243H18.13v-1.174a3.626 3.626 0 0 0-3.63-3.626H6.043a3.626 3.626 0 0 0-3.626 3.626v1.174H0v1.243zm-7.252-1.209H3.626v-1.208a2.42 2.42 0 0 1 2.417-2.417H14.5a2.42 2.42 0 0 1 2.417 2.417zm-6.648-14.5a3.022 3.022 0 1 1-3.022 3.022 3.022 3.022 0 0 1 3.022-3.022m0-1.209a4.23 4.23 0 1 0 4.23 4.23 4.23 4.23 0 0 0-4.23-4.233zm11.482-2.1.692 1.4.281.57.629.091 1.548.225-1.12 1.092-.455.444.107.626.264 1.542L22.319 10l-.562-.3-.562.3-1.384.728.264-1.542.107-.626-.455-.444-1.121-1.096 1.548-.22.629-.091.281-.57.692-1.4m0-2.731L19.98 5.6l-3.972.577 2.874 2.8-.682 3.956 3.552-1.868 3.552 1.868-.674-3.956 2.874-2.8-3.972-.577z" transform="translate(13 9)" style="fill:#8c8c8c;stroke:#8c8c8c;stroke-width:.4px"/>
    </g>
</svg>
