<svg data-name="Component 13 – 45" xmlns="http://www.w3.org/2000/svg"  width="40" height="40" viewBox="10 0 20 40">
    <g data-name="Group 2226">
        <path data-name="Path 25006" d="M5.156 1.125a.506.506 0 0 0-.505.505v3.285H1.365a.505.505 0 0 0-.505.505v13.648a.506.506 0 0 0 .505.505h4.784L9.032 23.9a.506.506 0 0 0 .841 0l2.883-4.324h7.817a.505.505 0 0 0 .505-.505v-3.288h3.285a.506.506 0 0 0 .505-.505V1.63a.506.506 0 0 0-.505-.505zm.505 1.011h18.2v12.636h-2.78V5.421a.505.505 0 0 0-.505-.505H5.662zm-3.79 3.79h18.2v12.637h-7.586a.506.506 0 0 0-.421.225l-2.611 3.918-2.613-3.918a.506.506 0 0 0-.421-.225H1.871zM5.978 9.59a.482.482 0 0 0-.349.152.537.537 0 0 0 0 .733.482.482 0 0 0 .349.152h9.982a.519.519 0 0 0 0-1.037zm0 4.273a.482.482 0 0 0-.349.152.537.537 0 0 0 0 .733.482.482 0 0 0 .349.152h9.982a.519.519 0 0 0 0-1.037z" transform="translate(14.141 10.875)" style="fill:#8c8c8c;stroke:#8c8c8c;stroke-width:.4px"/>
    </g>
    <!-- <rect data-name="Rectangle 3126" width="54" height="3" rx="1.5" style="fill:#f66"/> -->
</svg>
