<svg xmlns="http://www.w3.org/2000/svg" width="60" height="60" viewBox="0 0 60 60">
    <g data-name="Group 120">
        <g data-name="Group 44">
            <g data-name="Group 44">
                <path data-name="Path 55" d="M81.9 18.15a5.951 5.951 0 0 0 6.03 5.942h.022a5.864 5.864 0 0 0 5.942-6.008 5.889 5.889 0 0 0-1.717-4.2 6.039 6.039 0 0 0-4.315-1.784 5.77 5.77 0 0 0-4.181 1.739A5.935 5.935 0 0 0 81.9 18.15zm3.257-2.817a3.751 3.751 0 0 1 2.663-1.122 3.943 3.943 0 0 1 2.817 1.166 3.875 3.875 0 0 1-2.729 6.58 3.779 3.779 0 0 1-3.9-3.829 3.946 3.946 0 0 1 1.147-2.795z" transform="translate(-69.945 -7.097)" style="fill:#2476b7"/>
                <path data-name="Path 56" d="M89.559 79.562h.11a3.348 3.348 0 0 1 1.849.33 3.826 3.826 0 0 1 2.025 2.927c.2 1.21.286 2.443.4 3.741l.044.616c.022.374.066.77.088 1.1l.4 8.252.968.044c2.9.154 8.693.462 9.837.616a1.875 1.875 0 0 1 1.827 1.8 626.238 626.238 0 0 0 1.849 9.969c.264 1.408.55 2.817.814 4.225a1.076 1.076 0 0 0 1.034.858.609.609 0 0 0 .2-.022 1.063 1.063 0 0 0 .836-1.254c-.264-1.408-.55-2.817-.814-4.225-.616-3.235-1.232-6.58-1.849-9.947a3.909 3.909 0 0 0-3.631-3.521c-1.21-.154-6.756-.462-9.045-.572l-.308-6.4a17.616 17.616 0 0 1-.088-1.188l-.044-.528c-.11-1.342-.2-2.619-.418-3.917a5.951 5.951 0 0 0-3.191-4.489 5.621 5.621 0 0 0-2.949-.55.679.679 0 0 0-.2.022 6.021 6.021 0 0 0-5.238 6.492l.264 3.9c.22 3.059.44 6.228.484 9.331.066 4.6 2.619 7.042 7.328 7.042h.11c1.761-.022 3.411 0 5.062 0h5.656a1.067 1.067 0 0 0 0-2.135h-.022c-1.959.022-3.785.022-5.634 0h-5.18c-3.543 0-5.15-1.518-5.216-4.951-.044-3.169-.264-6.36-.484-9.441l-.264-3.873a3.867 3.867 0 0 1 3.39-4.252z" transform="translate(-71.626 -58.046)" style="fill:#2476b7"/>
                <path data-name="Path 57" d="M47.847 102.318a1.049 1.049 0 0 0-1.21-.88 1.065 1.065 0 0 0-.88 1.21l2.421 15.911a13.009 13.009 0 0 0 12.9 11.884h8.054a1.057 1.057 0 0 0 1.056-1.056 1.071 1.071 0 0 0-1.056-1.056h-8.081a10.884 10.884 0 0 1-10.783-9.991z" transform="translate(-41.745 -76.775)" style="fill:#2476b7"/>
            </g>
            <g data-name="Group 45">
                <path data-name="Path 55" d="M81.9 17.413a5.226 5.226 0 0 0 5.3 5.218h.019a5.276 5.276 0 0 0 3.711-8.968 5.3 5.3 0 0 0-3.794-1.563 5.067 5.067 0 0 0-3.672 1.527 5.212 5.212 0 0 0-1.564 3.786zm2.86-2.474a3.294 3.294 0 0 1 2.339-.986 3.463 3.463 0 0 1 2.474 1.024 3.4 3.4 0 0 1-2.4 5.779 3.319 3.319 0 0 1-3.421-3.363 3.466 3.466 0 0 1 1.006-2.454z" transform="translate(-55.913 -5.386)" style="fill:#707070"/>
                <path data-name="Path 56" d="M88.887 79.3h.1a2.941 2.941 0 0 1 1.623.29 3.36 3.36 0 0 1 1.778 2.57c.174 1.063.251 2.145.348 3.286l.039.541c.019.329.058.676.077.966L93.2 91.2l.85.039a26.824 26.824 0 0 1 4.139.541 1.647 1.647 0 0 1 1.6 1.585 565.203 565.203 0 0 0 1.623 8.755c.232 1.237.483 2.474.715 3.711a.945.945 0 0 0 .908.754.535.535 0 0 0 .174-.019.933.933 0 0 0 .734-1.1c-.232-1.237-.483-2.474-.715-3.711-.541-2.841-1.082-5.779-1.623-8.736a3.433 3.433 0 0 0-3.189-3.092 22.174 22.174 0 0 0-3.443-.5L94.7 86.8a15.067 15.067 0 0 1-.077-1.044l-.039-.464c-.1-1.179-.174-2.3-.367-3.44a5.226 5.226 0 0 0-2.8-3.943 4.937 4.937 0 0 0-2.59-.483.6.6 0 0 0-.174.019 5.288 5.288 0 0 0-4.6 5.7l.232 3.421c.193 2.686.425 5.195.425 5.195l1.855-.039s-.232-2.586-.425-5.291l-.232-3.4a3.4 3.4 0 0 1 2.979-3.731z" transform="translate(-57.651 -58.084)" style="fill:#707070"/>
            </g>
            <g data-name="Group 46">
                <path data-name="Path 55" d="M81.9 17.413a5.226 5.226 0 0 0 5.3 5.218h.019a5.276 5.276 0 0 0 3.711-8.968 5.3 5.3 0 0 0-3.794-1.563 5.067 5.067 0 0 0-3.672 1.527 5.212 5.212 0 0 0-1.564 3.786zm2.86-2.474a3.294 3.294 0 0 1 2.339-.986 3.463 3.463 0 0 1 2.474 1.024 3.4 3.4 0 0 1-2.4 5.779 3.319 3.319 0 0 1-3.421-3.363 3.466 3.466 0 0 1 1.006-2.454z" transform="translate(-42.413 -3.886)" style="fill:#707070"/>
                <path data-name="Path 56" d="M88.887 79.3h.1a2.941 2.941 0 0 1 1.623.29 3.36 3.36 0 0 1 1.778 2.57c.174 1.063.269 1.48.288 1.77l.348 4.248.85.039c2.551.135-.184-.07.821.065a1.647 1.647 0 0 1 1.6 1.585c.522 2.976.186.811.727 3.632.232 1.237.4 2.1.635 3.336a.945.945 0 0 0 .908.754.534.534 0 0 0 .174-.019.933.933 0 0 0 .734-1.1c-.232-1.237-.4-2.1-.635-3.336-.541-2.841-.186-.656-.727-3.613-.329-1.836-1.3-3.022-3.314-3.119l-.271-2.624a12.649 12.649 0 0 0-.307-1.924 5.226 5.226 0 0 0-2.8-3.943 4.937 4.937 0 0 0-2.59-.483.6.6 0 0 0-.174.019 5.288 5.288 0 0 0-4.6 5.7l.232 3.421 1.855-.135-.232-3.4a3.4 3.4 0 0 1 2.977-3.733z" transform="translate(-44.151 -56.584)" style="fill:#707070"/>
            </g>
        </g>
    </g>
</svg>
