<svg xmlns="http://www.w3.org/2000/svg" width="35.273" height="30.76" viewBox="0 0 35.273 30.76">
    <g data-name="Group 6066">
        <path data-name="Path 20447" d="M28.652 968.362a2.386 2.386 0 0 0-2.05 1.159L11.321 995.6a2.335 2.335 0 0 0 .014 2.347 2.519 2.519 0 0 0 2.163 1.173h30.308a2.524 2.524 0 0 0 2.163-1.173 2.334 2.334 0 0 0 0-2.347L30.7 969.521a2.386 2.386 0 0 0-2.05-1.159zm0 .9a1.532 1.532 0 0 1 1.272.707l15.267 26.1a1.465 1.465 0 0 1 0 1.428 1.827 1.827 0 0 1-1.385.721H13.5a1.831 1.831 0 0 1-1.385-.721 1.466 1.466 0 0 1 0-1.428l15.267-26.1a1.532 1.532 0 0 1 1.272-.707zm0 9.5a1.809 1.809 0 0 0-1.809 1.809l.452 8.595a1.357 1.357 0 1 0 2.714 0l.452-8.595a1.809 1.809 0 0 0-1.809-1.805zm0 12.666a2.262 2.262 0 1 0 2.262 2.262 2.262 2.262 0 0 0-2.262-2.258z" transform="translate(-11.012 -968.362)" style="fill:#fc4242"/>
    </g>
</svg>
