<svg xmlns="http://www.w3.org/2000/svg" width="24" height="24.002" viewBox="0 0 24 24.002">
    <g data-name="Group 171">
        <g data-name="Group 9881">
            <path data-name="Path 26066" d="m23300.113 23092.949-.012-.018a.716.716 0 0 1 .082-.627.6.6 0 0 1 .5-.256h3.691a.6.6 0 0 1 .5.256.716.716 0 0 1 .082.627l-.012.018a2.65 2.65 0 0 1-2.428 1.648 2.6 2.6 0 0 1-2.403-1.648zm2.422-1.92-5.289-.029a1.7 1.7 0 0 1-1.551-1.088v-.006a1.792 1.792 0 0 1 .352-1.895 5.575 5.575 0 0 0 1.592-4.539 17.56 17.56 0 0 1 .164-2.527v-.053a4.433 4.433 0 0 1 4.311-3.9h.824a4.435 4.435 0 0 1 4.313 3.9v.047a14.82 14.82 0 0 1 .158 2.539l.006.053a5.452 5.452 0 0 0 1.59 4.48 1.817 1.817 0 0 1 .352 1.9 1.7 1.7 0 0 1-1.551 1.088l-5.264.029zm-2.967-9.84v.047a14.141 14.141 0 0 0-.146 1.908c-.006.123-.006.246-.012.369a7.378 7.378 0 0 1-1.947 5.645l5.078.029 5.072-.029a7.258 7.258 0 0 1-1.943-5.553v-.068a14.647 14.647 0 0 0-.158-2.271l-.006-.023v-.023a2.6 2.6 0 0 0-2.533-2.293h-1.158v-.012a2.674 2.674 0 0 0-2.247 2.274z" transform="translate(-23290.435 -23073.299)" style="fill:#fff"/>
        </g>
        <g data-name="Ellipse 164" transform="translate(12.002)" style="fill:#f6dd38;stroke:#f66;stroke-width:2px">
            <circle cx="5" cy="5" r="5" style="stroke:none"/>
            <circle cx="5" cy="5" r="4" style="fill:none"/>
        </g>
    </g>
</svg>
