<svg xmlns="http://www.w3.org/2000/svg" width="24" height="24" viewBox="0 0 24 24">
    <g data-name="Group 36">
        <path data-name="Path 35" d="M4.8 14.533a.344.344 0 0 1 .31-.48h3.921a.344.344 0 0 1 .311.48A2.5 2.5 0 0 1 7.056 16 2.455 2.455 0 0 1 4.8 14.533zM1.469 13.4a1.482 1.482 0 0 1-1.354-.9 1.426 1.426 0 0 1 .31-1.58A5.706 5.706 0 0 0 2.2 6.18a16.745 16.745 0 0 1 .169-2.511V3.64A4.306 4.306 0 0 1 6.632 0h.875a4.306 4.306 0 0 1 4.261 3.64v.028a13.561 13.561 0 0 1 .169 2.511 5.62 5.62 0 0 0 1.778 4.741 1.437 1.437 0 0 1 .311 1.58 1.482 1.482 0 0 1-1.355.9l-5.587.028zm2.144-9.534v.028a17.167 17.167 0 0 0-.169 2.314A6.883 6.883 0 0 1 1.3 11.824a.177.177 0 0 0-.028.226c.028.056.057.113.2.113l5.615.028 5.615-.028a.263.263 0 0 0 .2-.113.227.227 0 0 0-.028-.226 6.769 6.769 0 0 1-2.145-5.587 13.561 13.561 0 0 0-.169-2.314v-.029a3.033 3.033 0 0 0-3.024-2.568h-.9V1.3a3.059 3.059 0 0 0-3.023 2.566z" transform="translate(5 4)" style="fill:#fff"/>
        <g data-name="Ellipse 6" transform="translate(13 2)" style="fill:#f24c00;stroke:#2476b7">
            <circle cx="4" cy="4" r="4" style="stroke:none"/>
            <circle cx="4" cy="4" r="3.5" style="fill:none"/>
        </g>
    </g>
</svg>
