<svg xmlns="http://www.w3.org/2000/svg" width="18" height="18" viewBox="0 0 18 18">
    <g data-name="Group 128">
        <path data-name="Path 26046" d="M9 0a9 9 0 1 1-9 9 9 9 0 0 1 9-9z" style="fill:#f5f7fa"/>
        <g data-name="Group 18">
            <path data-name="Path 9" d="m17.392 17.257-1.311-.916a1.011 1.011 0 0 0-1.409.251l-.3.436a11.268 11.268 0 0 1-1.622-1.362 11.254 11.254 0 0 1-1.362-1.622l.436-.3a1.013 1.013 0 0 0 .251-1.41l-.916-1.311a1.013 1.013 0 0 0-.827-.438.948.948 0 0 0-.329.059 1.828 1.828 0 0 0-.341.167l-.181.127a1.387 1.387 0 0 0-.128.114 1.818 1.818 0 0 0-.466.831c-.377 1.415.558 3.554 2.326 5.323a7.349 7.349 0 0 0 4.657 2.408 2.59 2.59 0 0 0 .665-.082 1.817 1.817 0 0 0 .83-.466 1.345 1.345 0 0 0 .12-.136l.128-.182a1.826 1.826 0 0 0 .161-.332 1 1 0 0 0-.382-1.159z" transform="translate(-4.314 -6.583)" style="fill:#003974"/>
        </g>
    </g>
</svg>
