<svg xmlns="http://www.w3.org/2000/svg" width="24" height="24" viewBox="0 0 24 24">
    <g data-name="Group 130">
        <g data-name="Group 110">
            <path data-name="Path 251" d="M.8 0a.761.761 0 0 1 .8.715v14.57A.761.761 0 0 1 .8 16a.761.761 0 0 1-.8-.715V.715A.761.761 0 0 1 .8 0z" transform="translate(11.156 4)" style="fill:#fff"/>
            <path data-name="Path 252" d="M.8 0a.761.761 0 0 1 .8.715v14.57A.761.761 0 0 1 .8 16a.761.761 0 0 1-.8-.715V.715A.761.761 0 0 1 .8 0z" transform="rotate(90 4.378 15.622)" style="fill:#fff"/>
        </g>
    </g>
</svg>
