<svg xmlns="http://www.w3.org/2000/svg" width="24" height="24" viewBox="0 0 24 24">
    <g data-name="Group 130">
        <g data-name="Group 1928">
            <g data-name="Group 1927">
                <path data-name="Path 1251" d="M141.809 98.513H138v-3.829l9.851-9.857a1.475 1.475 0 0 1 1.025-.436 1.42 1.42 0 0 1 1.035.42l1.772 1.776a1.461 1.461 0 0 1-.018 2.063zm-2.627-1.182h2.138l9.508-9.516a.28.28 0 0 0 .018-.392l-1.772-1.774a.25.25 0 0 0-.181-.073.29.29 0 0 0-.2.089l-9.506 9.51z" transform="translate(-133.361 -80.836)" style="fill:#fff"/>
            </g>
            <path data-name="Rectangle 972" transform="translate(4.777 19.224)" style="fill:#fff" d="M0 0h14.583v1.182H0z"/>
        </g>
    </g>
</svg>
