<svg data-name="Component 13 – 46" xmlns="http://www.w3.org/2000/svg" width="54" height="54" viewBox="10 0 30 30">
    <g data-name="Group 2226">
        <g data-name="Group 9875">
            <path data-name="Path 26020" d="m15.838 15.449-1.954-1.025a.958.958 0 0 0-.89 0l-4.2 2.2a.957.957 0 0 0-.513.848v8.056a.41.41 0 1 0 .821 0v-8.055a.137.137 0 0 1 .073-.121l4.2-2.2a.137.137 0 0 1 .127 0l1.954 1.025a.41.41 0 0 0 .381-.727z" transform="translate(7.845 -1.975)" style="fill:#8d8d8d;stroke:#8d8d8d;stroke-width:.4px;fill-rule:evenodd"/>
            <path data-name="Path 26021" d="M20.743 27.942v-1.235a.957.957 0 0 0-.957-.957h-1.054a.957.957 0 0 0-.957.957v1.235a.957.957 0 0 0 .957.957h1.053a.957.957 0 0 0 .958-.957zm-.821-1.235v1.235a.137.137 0 0 1-.137.137h-1.053a.137.137 0 0 1-.137-.137v-1.235a.137.137 0 0 1 .137-.137h1.053a.137.137 0 0 1 .138.137z" transform="translate(.95 -10.283)" style="fill:#8d8d8d;stroke:#8d8d8d;stroke-width:.4px;fill-rule:evenodd"/>
            <path data-name="Path 26022" d="M20.743 43.724v-1.235a.957.957 0 0 0-.957-.957h-1.054a.957.957 0 0 0-.957.957v1.235a.957.957 0 0 0 .957.957h1.053a.957.957 0 0 0 .958-.957zm-.821-1.235v1.235a.137.137 0 0 1-.137.137h-1.053a.137.137 0 0 1-.137-.137v-1.235a.137.137 0 0 1 .137-.137h1.053a.137.137 0 0 1 .138.137z" transform="translate(.95 -21.748)" style="fill:#8d8d8d;stroke:#8d8d8d;stroke-width:.4px;fill-rule:evenodd"/>
            <path data-name="Path 26023" d="M46.415 15.227V3.06a.957.957 0 0 0-.957-.957h-10.8a.957.957 0 0 0-.957.957v11.957a.41.41 0 0 0 .821 0V3.06a.137.137 0 0 1 .137-.137h10.8a.137.137 0 0 1 .137.137v12.167a.41.41 0 1 0 .821 0z" transform="translate(-10.618 6.896)" style="fill:#8d8d8d;stroke:#8d8d8d;stroke-width:.4px;fill-rule:evenodd"/>
            <path data-name="Path 26024" d="M42.42 12.571v1.445a.957.957 0 0 0 .957.957h1.689a.957.957 0 0 0 .957-.957v-1.924a.957.957 0 0 0-.957-.957h-1.342a.41.41 0 1 0 0 .821h1.343a.137.137 0 0 1 .137.137v1.924a.137.137 0 0 1-.137.137h-1.69a.137.137 0 0 1-.137-.137v-1.446a.41.41 0 1 0-.821 0z" transform="translate(-16.953 .335)" style="fill:#8d8d8d;stroke:#8d8d8d;stroke-width:.4px;fill-rule:evenodd"/>
            <path data-name="Path 26025" d="M46.024 30.652v-1.925a.957.957 0 0 0-.957-.957h-1.69a.957.957 0 0 0-.957.957v1.924a.957.957 0 0 0 .957.957h1.689a.957.957 0 0 0 .958-.956zm-.824-1.925v1.924a.137.137 0 0 1-.137.137h-1.686a.137.137 0 0 1-.137-.137v-1.924a.137.137 0 0 1 .137-.137h1.689a.137.137 0 0 1 .134.137z" transform="translate(-16.953 -11.75)" style="fill:#8d8d8d;stroke:#8d8d8d;stroke-width:.4px;fill-rule:evenodd"/>
            <path data-name="Path 26026" d="M61.892 14.017v-1.925a.957.957 0 0 0-.957-.957h-1.69a.957.957 0 0 0-.957.957v1.924a.957.957 0 0 0 .957.957h1.689a.957.957 0 0 0 .958-.956zm-.821-1.924v1.924a.137.137 0 0 1-.137.137h-1.689a.137.137 0 0 1-.137-.137v-1.925a.137.137 0 0 1 .137-.137h1.689a.137.137 0 0 1 .137.137z" transform="translate(-28.481 .335)" style="fill:#8d8d8d;stroke:#8d8d8d;stroke-width:.4px;fill-rule:evenodd"/>
            <path data-name="Path 26027" d="M61.892 30.652v-1.925a.957.957 0 0 0-.957-.957h-1.69a.957.957 0 0 0-.957.957v1.924a.957.957 0 0 0 .957.957h1.689a.957.957 0 0 0 .958-.956zm-.821-1.924v1.924a.137.137 0 0 1-.137.137h-1.689a.137.137 0 0 1-.137-.137v-1.925a.137.137 0 0 1 .137-.137h1.689a.137.137 0 0 1 .137.137z" transform="translate(-28.481 -11.75)" style="fill:#8d8d8d;stroke:#8d8d8d;stroke-width:.4px;fill-rule:evenodd"/>
            <path data-name="Path 26028" d="M63.508 58.847v-9.808a.958.958 0 0 0-.591-.885L58.4 46.287a.96.96 0 0 0-.733 0l-4.507 1.868a.958.958 0 0 0-.591.885v9.808a.41.41 0 1 0 .821 0v-9.809a.137.137 0 0 1 .084-.126l4.513-1.868a.138.138 0 0 1 .1 0l4.513 1.868a.137.137 0 0 1 .084.126v9.808a.41.41 0 1 0 .821 0z" transform="translate(-24.326 -25.149)" style="fill:#8d8d8d;stroke:#8d8d8d;stroke-width:.4px;fill-rule:evenodd"/>
            <path data-name="Path 26029" d="M63.256 59.519a.957.957 0 0 0-.957-.957h-1.043a.957.957 0 0 0-.957.957v1.223a.957.957 0 0 0 .957.957H62.3a.957.957 0 0 0 .957-.957v-1.223zm-.821 0v1.223a.137.137 0 0 1-.137.137h-1.042a.137.137 0 0 1-.137-.137v-1.223a.137.137 0 0 1 .137-.137H62.3a.137.137 0 0 1 .137.137z" transform="translate(-29.942 -34.119)" style="fill:#8d8d8d;stroke:#8d8d8d;stroke-width:.4px;fill-rule:evenodd"/>
            <path data-name="Path 26030" d="M63.256 75.406a.957.957 0 0 0-.957-.957h-1.043a.957.957 0 0 0-.957.957v1.223a.957.957 0 0 0 .957.957H62.3a.957.957 0 0 0 .957-.957zm-.821 0v1.223a.137.137 0 0 1-.137.137h-1.042a.137.137 0 0 1-.137-.137v-1.223a.137.137 0 0 1 .137-.137H62.3a.137.137 0 0 1 .136.137z" transform="translate(-29.942 -45.66)" style="fill:#8d8d8d;stroke:#8d8d8d;stroke-width:.4px;fill-rule:evenodd"/>
            <path data-name="Path 26031" d="M76.977 59.519a.957.957 0 0 0-.957-.957h-1.043a.957.957 0 0 0-.957.957v1.223a.957.957 0 0 0 .957.957h1.043a.957.957 0 0 0 .957-.957v-1.223zm-.821 0v1.223a.137.137 0 0 1-.137.137h-1.042a.137.137 0 0 1-.137-.137v-1.223a.137.137 0 0 1 .137-.137h1.043a.137.137 0 0 1 .137.137z" transform="translate(-39.909 -34.119)" style="fill:#8d8d8d;stroke:#8d8d8d;stroke-width:.4px;fill-rule:evenodd"/>
            <path data-name="Path 26032" d="M76.977 75.406a.957.957 0 0 0-.957-.957h-1.043a.957.957 0 0 0-.957.957v1.223a.957.957 0 0 0 .957.957h1.043a.957.957 0 0 0 .957-.957zm-.821 0v1.223a.137.137 0 0 1-.137.137h-1.042a.137.137 0 0 1-.137-.137v-1.223a.137.137 0 0 1 .137-.137h1.043a.137.137 0 0 1 .137.137z" transform="translate(-39.909 -45.66)" style="fill:#8d8d8d;stroke:#8d8d8d;stroke-width:.4px;fill-rule:evenodd"/>
            <path data-name="Path 26033" d="M.948 57.694a3.841 3.841 0 0 0-.448 1.83c0 1.8 1.172 3.217 2.54 3.217s2.54-1.415 2.54-3.217a3.856 3.856 0 0 0-.447-1.83 1.85 1.85 0 0 1-.192-1.1 3.006 3.006 0 0 0 .023-.371 2.213 2.213 0 0 0-1.923-2.4 2.213 2.213 0 0 0-1.924 2.4 2.878 2.878 0 0 0 .024.373 1.852 1.852 0 0 1-.192 1.1zm.721.393a2.685 2.685 0 0 0 .285-1.6 2.045 2.045 0 0 1-.017-.268 1.832 1.832 0 0 1 .494-1.319.878.878 0 0 1 .608-.27.878.878 0 0 1 .608.27 1.832 1.832 0 0 1 .495 1.314 2.261 2.261 0 0 1-.016.271 2.679 2.679 0 0 0 .286 1.6 3.033 3.033 0 0 1 .347 1.438 2.746 2.746 0 0 1-.747 1.969 1.4 1.4 0 0 1-.972.426 1.4 1.4 0 0 1-.972-.426 2.745 2.745 0 0 1-.747-1.969 3.016 3.016 0 0 1 .348-1.437z" transform="translate(13.5 -30.669)" style="fill:#8d8d8d;stroke:#8d8d8d;stroke-width:.4px;fill-rule:evenodd"/>
            <path data-name="Path 26034" d="M26.364 57.694a3.838 3.838 0 0 0-.448 1.83c0 1.8 1.172 3.217 2.54 3.217S31 61.326 31 59.524a3.853 3.853 0 0 0-.447-1.83 1.852 1.852 0 0 1-.192-1.1 3.06 3.06 0 0 0 .022-.371 2.213 2.213 0 0 0-1.923-2.4 2.213 2.213 0 0 0-1.923 2.4 2.83 2.83 0 0 0 .024.373 1.854 1.854 0 0 1-.192 1.1zm.721.393a2.685 2.685 0 0 0 .286-1.6 2.045 2.045 0 0 1-.017-.268 1.83 1.83 0 0 1 .495-1.314.821.821 0 0 1 1.216 0 1.831 1.831 0 0 1 .494 1.314 2.206 2.206 0 0 1-.016.271 2.683 2.683 0 0 0 .286 1.6 3.03 3.03 0 0 1 .347 1.438 2.745 2.745 0 0 1-.747 1.969 1.321 1.321 0 0 1-1.944 0 2.746 2.746 0 0 1-.747-1.969 3.02 3.02 0 0 1 .348-1.437z" transform="translate(-4.964 -30.669)" style="fill:#8d8d8d;stroke:#8d8d8d;stroke-width:.4px;fill-rule:evenodd"/>
            <path data-name="Path 26035" d="M8.285 67.681v6.463a.41.41 0 0 0 .821 0v-6.463a.41.41 0 0 0-.821 0z" transform="translate(7.845 -40.446)" style="fill:#8d8d8d;stroke:#8d8d8d;stroke-width:.4px;fill-rule:evenodd"/>
            <path data-name="Path 26036" d="M33.7 67.681v6.463a.41.41 0 1 0 .821 0v-6.463a.41.41 0 1 0-.821 0z" transform="translate(-10.618 -40.446)" style="fill:#8d8d8d;stroke:#8d8d8d;stroke-width:.4px;fill-rule:evenodd"/>
            <path data-name="Path 26037" d="M.91 91.718h25.166a.41.41 0 1 0 0-.821H.91a.41.41 0 0 0 0 .821z" transform="translate(13.5 -57.609)" style="fill:#8d8d8d;stroke:#8d8d8d;stroke-width:.4px;fill-rule:evenodd"/>
        </g>
    </g>
</svg>
