<svg xmlns="http://www.w3.org/2000/svg" width="20.431" height="20.432" viewBox="0 0 20.431 20.432">
    <g data-name="Group 9964">
        <path data-name="Path 25988" d="M65.6 212.836a7.93 7.93 0 0 0 6.5 2.279 1.134 1.134 0 1 1 .251 2.254 10.216 10.216 0 0 1-9.118-16.529l-.854-.854c-.449-.449-.286-.867.342-.958l3.344-.477a.817.817 0 0 1 .975.974l-.478 3.344c-.088.62-.518.781-.958.343l-.753-.754a7.947 7.947 0 0 0 .749 10.378zM76.835 201.6a7.938 7.938 0 0 0-6.5-2.279 1.135 1.135 0 1 1-.249-2.256 10.217 10.217 0 0 1 9.114 16.529l.854.854c.439.44.277.869-.342.958l-3.344.479a.818.818 0 0 1-.975-.976l.478-3.344c.09-.627.509-.79.958-.341l.753.751a7.947 7.947 0 0 0-.747-10.375z" style="fill:#f66;fill-rule:evenodd" transform="translate(-61.001 -197.002)"/>
    </g>
</svg>
