<svg data-name="Component 24 – 315" xmlns="http://www.w3.org/2000/svg" width="28" height="28" viewBox="0 0 28 28">
    <g data-name="Group 8293">
        <path data-name="Path 26054" d="m13429.185 16855.166-3.489-3.49a6.689 6.689 0 1 1 1.036-1.031l3.485 3.49a.7.7 0 0 1 .212.516.728.728 0 0 1-.212.516.72.72 0 0 1-.516.217.754.754 0 0 1-.516-.218zm-12.956-8.727a5.256 5.256 0 1 0 5.258-5.254 5.265 5.265 0 0 0-5.258 5.254z" transform="translate(-13408.769 -16833.713)" style="fill:#8d8d8d"/>
    </g>
</svg>
