<!-- <svg xmlns="http://www.w3.org/2000/svg" width="60" height="60" viewBox="0 0 60 60">
    <g data-name="Group 126">
        <g data-name="Group 49">
            <path data-name="Exclusion 1" d="M25.523 51a6.577 6.577 0 0 1-6.574-6.57v-.344L17.01 43.3l-.217.219a6.581 6.581 0 0 1-9.311-9.3L7.705 34l-.8-1.937h-.331a6.551 6.551 0 1 1 0-13.1h.334l.8-1.922-.226-.241a6.657 6.657 0 0 1-1.916-4.672A6.5 6.5 0 0 1 7.482 7.5a6.659 6.659 0 0 1 4.67-1.914A6.54 6.54 0 0 1 16.793 7.5l.217.219 1.869-.789v-.336a6.586 6.586 0 1 1 13.172 0v.336l1.922.789.234-.219a6.659 6.659 0 0 1 4.67-1.914A6.5 6.5 0 0 1 43.5 7.5a6.6 6.6 0 0 1 1.916 4.664A6.506 6.506 0 0 1 43.5 16.8l-.223.234.844 1.867h.352a6.579 6.579 0 0 1 1.359 13.016l-2.132-2.19h.709a4.317 4.317 0 0 0 4.266-4.25 4.264 4.264 0 0 0-4.266-4.25h-1.87l-1.975-4.773 1.295-1.3a4.256 4.256 0 0 0-6.018-6.02L34.494 10.5l-4.77-1.984V6.641a4.26 4.26 0 0 0-8.52 0v1.875L16.453 10.5l-1.365-1.363a4.256 4.256 0 0 0-6.018 6.02l1.365 1.3-1.992 4.77H6.574a4.281 4.281 0 0 0 0 8.563h1.869l1.992 4.758-1.365 1.366a4.258 4.258 0 0 0 3 7.266 4.215 4.215 0 0 0 3.018-1.25l1.365-1.363 4.822 1.988v1.875a4.248 4.248 0 0 0 8.5 0v-.535c.164.184.322.371.48.551l.639.734.949 1.082A6.6 6.6 0 0 1 25.523 51z" style="fill:#2476b7" transform="translate(4.001 5)"/>
            <path data-name="Path 68" d="M29.632 1.131c2.142 2.07 2.988 4.607.929 6.894l-9.912 9.927a4.219 4.219 0 0 0-1.213 3.312 9.71 9.71 0 0 1-9.7 10.469 6.725 6.725 0 0 1-.946-.044 1.893 1.893 0 0 1-1.607-1.257 1.922 1.922 0 0 1 .453-2.026l2.844-2.844a1.513 1.513 0 0 0 0-2.139L8.326 21.26a1.553 1.553 0 0 0-2.139 0L3.342 24.1a1.927 1.927 0 0 1-3.3-1.158A9.71 9.71 0 0 1 9.716 12.3a6.515 6.515 0 0 1 .754.03 4.19 4.19 0 0 0 3.312-1.213L23.7 1.174c.873-.874 3.79-2.113 5.932-.043zm-4.547 1.433-9.912 9.927a6.161 6.161 0 0 1-4.873 1.784 7.739 7.739 0 0 0-8.3 8.38l2.775-2.8a3.485 3.485 0 0 1 4.929 0l2.159 2.159a3.49 3.49 0 0 1 0 4.929l-2.78 2.78c.217 0 .434.025.651.025a7.739 7.739 0 0 0 7.719-8.33 6.186 6.186 0 0 1 1.784-4.86s7.134-6.347 9.927-9.922c1.796-2.101-1.838-6.511-4.079-4.072z" transform="rotate(93 15.67 37.51)" style="fill:#707070"/>
        </g>
    </g>
</svg> -->

<svg xmlns="http://www.w3.org/2000/svg" width="60" height="60" viewBox="0 0 60 60">
    <g data-name="Group 126">
        <g data-name="Group 49">
            <path data-name="Exclusion 1" d="M25.523 51a6.577 6.577 0 0 1-6.574-6.57v-.344L17.01 43.3l-.217.219a6.581 6.581 0 0 1-9.311-9.3L7.705 34l-.8-1.937h-.331a6.551 6.551 0 1 1 0-13.1h.334l.8-1.922-.226-.241a6.657 6.657 0 0 1-1.916-4.672A6.5 6.5 0 0 1 7.482 7.5a6.659 6.659 0 0 1 4.67-1.914A6.54 6.54 0 0 1 16.793 7.5l.217.219 1.869-.789v-.336a6.586 6.586 0 1 1 13.172 0v.336l1.922.789.234-.219a6.659 6.659 0 0 1 4.67-1.914A6.5 6.5 0 0 1 43.5 7.5a6.6 6.6 0 0 1 1.916 4.664A6.506 6.506 0 0 1 43.5 16.8l-.223.234.844 1.867h.352a6.579 6.579 0 0 1 1.359 13.016l-2.132-2.19h.709a4.317 4.317 0 0 0 4.266-4.25 4.264 4.264 0 0 0-4.266-4.25h-1.87l-1.975-4.773 1.295-1.3a4.256 4.256 0 0 0-6.018-6.02L34.494 10.5l-4.77-1.984V6.641a4.26 4.26 0 0 0-8.52 0v1.875L16.453 10.5l-1.365-1.363a4.256 4.256 0 0 0-6.018 6.02l1.365 1.3-1.992 4.77H6.574a4.281 4.281 0 0 0 0 8.563h1.869l1.992 4.758-1.365 1.366a4.258 4.258 0 0 0 3 7.266 4.215 4.215 0 0 0 3.018-1.25l1.365-1.363 4.822 1.988v1.875a4.248 4.248 0 0 0 8.5 0v-.535c.164.184.322.371.48.551l.639.734.949 1.082A6.6 6.6 0 0 1 25.523 51z" fill="white" transform="translate(4.001 5)"/>
            <path data-name="Path 68" d="M29.632 1.131c2.142 2.07 2.988 4.607.929 6.894l-9.912 9.927a4.219 4.219 0 0 0-1.213 3.312 9.71 9.71 0 0 1-9.7 10.469 6.725 6.725 0 0 1-.946-.044 1.893 1.893 0 0 1-1.607-1.257 1.922 1.922 0 0 1 .453-2.026l2.844-2.844a1.513 1.513 0 0 0 0-2.139L8.326 21.26a1.553 1.553 0 0 0-2.139 0L3.342 24.1a1.927 1.927 0 0 1-3.3-1.158A9.71 9.71 0 0 1 9.716 12.3a6.515 6.515 0 0 1 .754.03 4.19 4.19 0 0 0 3.312-1.213L23.7 1.174c.873-.874 3.79-2.113 5.932-.043zm-4.547 1.433-9.912 9.927a6.161 6.161 0 0 1-4.873 1.784 7.739 7.739 0 0 0-8.3 8.38l2.775-2.8a3.485 3.485 0 0 1 4.929 0l2.159 2.159a3.49 3.49 0 0 1 0 4.929l-2.78 2.78c.217 0 .434.025.651.025a7.739 7.739 0 0 0 7.719-8.33 6.186 6.186 0 0 1 1.784-4.86s7.134-6.347 9.927-9.922c1.796-2.101-1.838-6.511-4.079-4.072z" transform="rotate(93 15.67 37.51)" fill="#fff"/>
        </g>
    </g>
</svg>

