<svg width="363" height="86" viewBox="0 0 363 86" fill="none" xmlns="http://www.w3.org/2000/svg">
<g filter="url(#filter0_i_139_195)">
<g filter="url(#filter1_d_139_195)">
<path d="M48.525 23.9017C52.5612 24.3473 55.9851 25.0919 58.7969 26.1356C61.6086 27.1792 63.8864 28.4308 65.6301 29.8904C67.4 31.324 68.6749 32.9264 69.4549 34.6978C70.2609 36.4432 70.6633 38.2664 70.6619 40.1674C70.6603 42.3549 70.3074 44.2818 69.6031 45.9479C68.8988 47.6141 67.9602 49.0848 66.7875 50.36C65.6407 51.6092 64.3119 52.6629 62.8008 53.5212C61.3159 54.3795 59.7789 55.0686 58.19 55.5883C56.6271 56.134 55.0773 56.5235 53.5407 56.7568C52.0041 57.0162 50.6238 57.1584 49.3998 57.1836L48.4232 57.1829C47.1212 57.1559 45.6239 57.0377 43.9313 56.8281C42.2648 56.6446 40.5462 56.3439 38.7757 55.926C37.0312 55.5081 35.3128 54.973 33.6206 54.3208C31.9283 53.6425 30.4185 52.8081 29.0911 51.8176C27.7637 50.827 26.6968 49.6544 25.8905 48.2997C25.0842 46.9449 24.6816 45.3691 24.6829 43.5722C24.6836 42.6087 24.8404 41.7625 25.1535 41.0335C25.4665 40.3046 25.8966 39.6929 26.4438 39.1985C26.9911 38.678 27.6164 38.2748 28.3197 37.9889C29.0491 37.7029 29.8304 37.5342 30.6638 37.4827C31.6794 37.4835 32.6168 37.7055 33.4758 38.1488C34.3609 38.5661 35.1288 39.1656 35.7792 39.9473C36.4297 40.703 36.9499 41.6278 37.3398 42.7219C37.7557 43.7899 37.9892 44.988 38.0403 46.3161C38.0917 47.3839 38.3383 48.4778 38.7802 49.5979C39.2221 50.718 39.8724 51.7341 40.7311 52.6462C41.5899 53.5582 42.657 54.3012 43.9327 54.875C45.2083 55.4488 46.7055 55.7363 48.4243 55.7376C49.7784 55.7385 51.0026 55.466 52.0967 54.9199C53.2169 54.3738 54.1679 53.6453 54.9498 52.7344C55.7317 51.8235 56.3314 50.7692 56.749 49.5716C57.1665 48.3479 57.3757 47.0721 57.3767 45.7439C57.3775 44.546 57.17 43.361 56.7542 42.1888C56.3384 41.0166 55.6881 39.9745 54.8033 39.0624C53.9186 38.1243 52.7863 37.3552 51.4065 36.7553C50.0267 36.1554 48.3733 35.8156 46.4463 35.7362C42.5141 35.5511 39.1552 34.9627 36.3694 33.9712C33.6097 32.9796 31.345 31.702 29.5753 30.1382C27.8056 28.5484 26.5048 26.7376 25.6729 24.7057C24.867 22.6739 24.4649 20.5382 24.4665 18.2986C24.4682 15.8768 24.8343 13.7546 25.5648 11.9322C26.2953 10.0838 27.2599 8.49593 28.4588 7.16866C29.6837 5.81537 31.0778 4.69656 32.6409 3.81226C34.204 2.90191 35.8191 2.1739 37.4862 1.62821C39.1793 1.08254 40.8462 0.706118 42.487 0.498951C44.1538 0.265762 45.6904 0.149668 47.0966 0.150668L47.5654 0.151002C48.8674 0.17797 50.3127 0.296185 51.901 0.505649C53.5155 0.689089 55.1429 0.989726 56.7832 1.40756C58.4496 1.82541 60.0508 2.37343 61.5867 3.0516C63.1488 3.7298 64.5284 4.56411 65.7256 5.55455C66.9488 6.545 67.9246 7.71757 68.6528 9.07226C69.381 10.4009 69.7445 11.9376 69.7432 13.6824C69.7425 14.698 69.5726 15.5833 69.2335 16.3383C68.8945 17.0933 68.4383 17.731 67.865 18.2514C67.3178 18.7458 66.6665 19.1229 65.9111 19.3828C65.1557 19.6427 64.3743 19.7723 63.567 19.7718C62.5775 19.7711 61.6531 19.5491 60.7941 19.1057C59.935 18.6624 59.1802 18.0499 58.5298 17.2682C57.9053 16.4865 57.3982 15.5616 57.0083 14.4937C56.6445 13.3997 56.463 12.2016 56.464 10.8995C56.4648 9.77973 56.3223 8.67286 56.0366 7.57891C55.751 6.48495 55.2569 5.50804 54.5544 4.64816C53.8779 3.76226 52.967 3.04547 51.8215 2.49778C50.6761 1.95009 49.257 1.6496 47.5643 1.59631L47.1737 1.59604C45.8976 1.64721 44.7125 2.02397 43.6182 2.72632C42.55 3.40264 41.6249 4.30042 40.8429 5.41966C40.0608 6.53889 39.4479 7.80148 39.0042 9.20741C38.5866 10.5873 38.3772 11.9934 38.3762 13.4257C38.3753 14.6757 38.5568 15.8868 38.9205 17.0589C39.3103 18.2311 39.9085 19.2992 40.7151 20.2633C41.5478 21.2014 42.6019 21.9964 43.8775 22.6484C45.1531 23.3003 46.7022 23.7181 48.525 23.9017ZM113.865 40.7451C113.863 42.5419 113.55 44.2214 112.924 45.7834C112.323 47.3195 111.502 48.7382 110.46 50.0395C109.443 51.3148 108.27 52.4598 106.942 53.4745C105.639 54.4632 104.271 55.2955 102.838 55.9716C101.431 56.6737 100.025 57.2066 98.6183 57.5701C97.2118 57.9337 95.9096 58.1151 94.7116 58.1142L94.321 58.114C93.1231 58.0871 91.8472 57.8909 90.4933 57.5253C89.1654 57.1598 87.8377 56.625 86.5101 55.9209C85.2085 55.2429 83.9591 54.3957 82.7619 53.3792C81.5907 52.3627 80.5499 51.1771 79.6394 49.8223C78.7289 48.4414 78.0009 46.9044 77.4552 45.2113C76.9095 43.4922 76.6374 41.604 76.6389 39.5467C76.6404 37.4373 76.9673 35.5105 77.6196 33.7661C78.2719 31.9958 79.1194 30.4209 80.162 29.0414C81.2307 27.6619 82.4295 26.4649 83.7583 25.4502C85.1132 24.4355 86.468 23.5901 87.8226 22.914C89.2033 22.2379 90.5188 21.7441 91.769 21.4325C93.0453 21.0948 94.1522 20.9263 95.0897 20.927L95.4022 20.9272C96.9907 20.9804 98.553 21.268 100.089 21.7899C101.625 22.2858 103.07 22.977 104.424 23.8633C105.803 24.7497 107.065 25.8053 108.21 27.0301C109.381 28.2288 110.383 29.5577 111.215 31.0166C112.048 32.4755 112.698 34.0255 113.165 35.6664C113.633 37.3074 113.866 39.0003 113.865 40.7451ZM101.365 40.1112C101.366 39.4601 101.366 38.5617 101.367 37.4158C101.368 36.27 101.317 35.046 101.213 33.7439C101.136 32.4157 100.981 31.0744 100.747 29.7201C100.514 28.3658 100.163 27.1416 99.6954 26.0475C99.2274 24.9534 98.6161 24.0675 97.8613 23.3899C97.1327 22.6863 96.2084 22.3341 95.0887 22.3333C92.9532 22.3317 91.2595 23.7889 90.0074 26.7046C88.7814 29.6204 88.1663 34.0341 88.1621 39.9455C88.16 42.8882 88.2754 45.4144 88.5082 47.5239C88.7672 49.6335 89.1565 51.3655 89.6764 52.72C90.1963 54.0746 90.8727 55.0646 91.7056 55.6902C92.5384 56.3419 93.5408 56.6681 94.7127 56.6689L95.0642 56.6692C96.1841 56.6179 97.1088 56.267 97.8384 55.6165C98.5941 54.966 99.2068 53.9768 99.6765 52.649C100.172 51.2952 100.538 49.5897 100.774 47.5326C101.036 45.4755 101.233 43.0017 101.365 40.1112ZM135.064 56.4633C135.062 59.8747 134.565 62.8561 133.574 65.4075C132.608 67.9589 131.305 70.0934 129.663 71.811C128.021 73.5286 126.132 74.8163 123.996 75.6741C121.886 76.5581 119.685 77.0252 117.393 77.0757C115.831 77.0746 114.164 76.8781 112.394 76.4862C110.597 76.0943 108.944 75.4681 107.434 74.6077C105.898 73.7472 104.636 72.6265 103.648 71.2456C102.633 69.8907 102.126 68.2367 102.128 66.2836C102.128 65.5544 102.233 64.8383 102.442 64.1354C102.625 63.4324 102.911 62.7946 103.302 62.2219C103.693 61.6753 104.202 61.1939 104.827 60.7777C105.452 60.3875 106.195 60.1146 107.054 59.959C108.487 59.7256 109.671 59.8436 110.609 60.3131C111.546 60.8085 112.261 61.4731 112.756 62.3068C113.25 63.1405 113.562 64.0652 113.691 65.0809C113.794 66.1226 113.768 67.0601 113.611 67.8933C113.48 68.4141 113.389 68.9478 113.336 69.4947C113.258 70.0415 113.218 70.5753 113.218 71.0962C113.218 71.643 113.282 72.1769 113.412 72.6979C113.516 73.2188 113.724 73.6877 114.036 74.1046C114.348 74.5214 114.778 74.8603 115.325 75.1211C115.871 75.4079 116.561 75.5777 117.394 75.6304C118.618 75.6313 119.621 75.2023 120.403 74.3435C121.211 73.4847 121.837 72.3393 122.281 70.9073C122.75 69.5014 123.077 67.874 123.261 66.0252C123.444 64.2024 123.537 62.3144 123.538 60.3613L123.563 25.791L116.219 25.7858L116.22 24.3795L135.087 24.1976L135.064 56.4633ZM136.384 13.4173C136.383 14.3809 136.2 15.2922 135.835 16.1513C135.496 16.9844 135.014 17.7132 134.388 18.3378C133.763 18.9623 133.033 19.4566 132.2 19.8206C131.366 20.1846 130.468 20.3662 129.504 20.3655C128.541 20.3649 127.629 20.1819 126.77 19.8167C125.937 19.4516 125.208 18.9562 124.584 18.3308C123.959 17.7054 123.465 16.9758 123.101 16.1422C122.737 15.2826 122.555 14.371 122.556 13.4075C122.557 12.4439 122.74 11.5456 123.105 10.7126C123.47 9.87948 123.965 9.15067 124.591 8.52611C125.216 7.90156 125.946 7.42031 126.779 7.08236C127.639 6.71839 128.55 6.53674 129.514 6.53743C130.478 6.53811 131.376 6.72104 132.209 7.08622C133.042 7.42536 133.771 7.90764 134.395 8.53309C135.02 9.15853 135.501 9.88804 135.839 10.7216C136.203 11.5552 136.385 12.4538 136.384 13.4173ZM180.661 40.7926C180.66 42.5894 180.347 44.2689 179.72 45.831C179.12 47.367 178.299 48.7857 177.256 50.087C176.24 51.3623 175.067 52.5073 173.738 53.522C172.436 54.5107 171.068 55.343 169.635 56.0191C168.228 56.7212 166.822 57.2541 165.415 57.6177C164.009 57.9813 162.706 58.1626 161.508 58.1618L161.118 58.1615C159.92 58.1346 158.644 57.9384 157.29 57.5728C155.962 57.2073 154.635 56.6725 153.307 55.9684C152.005 55.2904 150.756 54.4432 149.559 53.4267C148.388 52.4102 147.347 51.2246 146.436 49.8698C145.526 48.4889 144.798 46.952 144.252 45.2589C143.706 43.5397 143.434 41.6515 143.436 39.5942C143.437 37.4848 143.764 35.558 144.416 33.8137C145.069 32.0433 145.916 30.4684 146.959 29.0889C148.028 27.7095 149.226 26.5124 150.555 25.4977C151.91 24.4831 153.265 23.6377 154.619 22.9615C156 22.2854 157.316 21.7916 158.566 21.48C159.842 21.1423 160.949 20.9739 161.887 20.9745L162.199 20.9747C163.788 21.028 165.35 21.3155 166.886 21.8375C168.422 22.3333 169.867 23.0245 171.22 23.9109C172.6 24.7973 173.862 25.8528 175.007 27.0776C176.178 28.2764 177.18 29.6052 178.012 31.0641C178.844 32.5231 179.494 34.073 179.962 35.714C180.43 37.3549 180.663 39.0478 180.661 40.7926ZM168.162 40.1587C168.162 39.5076 168.163 38.6092 168.164 37.4634C168.165 36.3175 168.113 35.0935 168.01 33.7914C167.933 32.4632 167.778 31.1219 167.544 29.7676C167.311 28.4133 166.96 27.1891 166.492 26.095C166.024 25.0009 165.413 24.1151 164.658 23.4374C163.93 22.7338 163.005 22.3816 161.886 22.3808C159.75 22.3793 158.056 23.8364 156.804 26.7522C155.578 29.668 154.963 34.0816 154.959 39.993C154.957 42.9357 155.072 45.4619 155.305 47.5714C155.564 49.681 155.953 51.413 156.473 52.7676C156.993 54.1221 157.67 55.1122 158.502 55.7378C159.335 56.3894 160.338 56.7156 161.51 56.7165L161.861 56.7167C162.981 56.6654 163.906 56.3145 164.635 55.664C165.391 55.0135 166.004 54.0243 166.473 52.6965C166.969 51.3427 167.335 49.6373 167.571 47.5801C167.833 45.523 168.03 43.0492 168.162 40.1587ZM222.314 24.1816L221.316 54.0246L225.379 53.6369L225.534 55.0823L210.338 56.4387L210.421 50.0325C209.977 50.9957 209.521 51.8418 209.052 52.5706C208.582 53.2994 208.1 53.9371 207.605 54.4836C207.136 55.0041 206.667 55.4465 206.198 55.8107C205.729 56.201 205.286 56.5132 204.869 56.7473C203.879 57.3195 202.902 57.6443 201.939 57.7218C199.673 57.7202 197.694 57.263 196.002 56.3504C194.31 55.4637 192.904 54.2779 191.786 52.7927C190.667 51.3075 189.822 49.6272 189.25 47.7518C188.705 45.8504 188.433 43.9101 188.434 41.9309L189.266 25.2909L184.618 25.2094L184.619 23.7641L201.65 24.0106C201.074 28.7758 200.628 32.799 200.313 36.08C200.025 39.335 199.814 41.9781 199.683 44.0092C199.525 46.405 199.432 48.332 199.405 49.7903C199.404 51.1445 199.508 52.2383 199.715 53.0718C199.923 53.9052 200.196 54.5565 200.534 55.0255C200.872 55.4945 201.237 55.8072 201.627 55.9637C202.018 56.1463 202.395 56.2507 202.76 56.2771C203.307 56.1472 203.906 55.8872 204.557 55.4971C205.235 55.1069 205.912 54.5085 206.59 53.7016C207.294 52.8688 207.971 51.7886 208.623 50.4609C209.275 49.1332 209.875 47.493 210.424 45.5403L210.711 25.5405L204.93 25.4583L204.931 24.013L222.314 24.1816ZM246.099 30.3704C246.881 28.8345 247.715 27.6241 248.601 26.7393C249.487 25.8546 250.308 25.165 251.064 24.6708C251.923 24.1245 252.796 23.7345 253.682 23.5008C254.775 23.3974 255.713 23.5022 256.494 23.8153C257.301 24.1023 257.952 24.5325 258.446 25.1057C258.967 25.679 259.344 26.3564 259.577 27.1378C259.811 27.9192 259.928 28.7396 259.927 29.599C259.927 30.4323 259.835 31.2786 259.652 32.1378C259.495 32.9971 259.273 33.8172 258.986 34.5983C258.725 35.3794 258.399 36.0953 258.008 36.746C257.643 37.3968 257.265 37.9174 256.874 38.3077L256.952 38.3078C256.197 39.1145 255.48 39.6739 254.803 39.9859C254.125 40.298 253.461 40.4537 252.81 40.4533C251.638 40.4524 250.688 40.0872 249.959 39.3575C249.231 38.6278 248.867 37.638 248.868 36.388C248.868 35.4244 249.091 34.3699 249.534 33.2244C249.978 32.0789 250.721 31.0247 251.763 30.0619C252.44 29.4895 253.144 29.0212 253.873 28.6572C254.498 28.3451 255.202 28.0982 255.983 27.9165C256.765 27.7347 257.546 27.7874 258.327 28.0744C258.119 27.0847 257.664 26.277 256.961 25.6515C256.259 25.026 255.217 24.7909 253.837 24.9462C252.847 25.1538 251.883 25.6089 250.945 26.3113C250.138 26.9097 249.291 27.8075 248.404 29.0048C247.544 30.1761 246.801 31.7771 246.174 33.8079L246.55 54.4723L253.269 54.2817L253.268 55.727L229.205 56.2177L229.206 54.7724L234.402 54.698L234.735 25.8701L230.477 25.6327L230.478 24.1874L246.024 24.8625L246.099 30.3704ZM261.848 20.8503L281.457 20.3955L281.215 31.0594C281.685 29.8879 282.22 28.7685 282.819 27.7012C283.445 26.6079 284.149 25.6318 284.931 24.773C285.713 23.9142 286.585 23.2117 287.549 22.6655C288.513 22.0933 289.581 21.7425 290.753 21.6131C292.238 21.6141 293.631 21.8886 294.932 22.4364C296.234 22.9581 297.418 23.6881 298.486 24.6264C299.579 25.5386 300.541 26.62 301.374 27.8706C302.206 29.1212 302.908 30.4499 303.48 31.8565C304.052 33.2632 304.468 34.7088 304.727 36.1933C304.987 37.6519 305.09 39.0842 305.037 40.4904C305.01 41.9487 304.97 43.4461 304.916 44.9825C304.863 46.3106 304.797 47.7819 304.718 49.3965C304.665 50.985 304.585 52.5474 304.48 54.0838L309.988 54.1658L309.987 55.6111L288.308 55.127L288.309 53.6817L292.566 53.7628C293.196 46.8101 293.358 39.766 293.05 32.6303C293.131 29.3752 292.95 27.0053 292.508 25.5206C292.093 24.0359 291.208 23.267 289.854 23.214C289.411 23.3439 288.825 23.5909 288.095 23.9549C287.366 24.319 286.584 24.9565 285.75 25.8673C284.942 26.7522 284.121 27.9755 283.287 29.5375C282.478 31.0733 281.761 33.065 281.134 35.5125L280.73 53.6763L284.793 53.6792L284.792 55.1245L264.479 55.11L264.48 53.6647L267.996 53.6672L268.8 22.1443L261.847 22.2956L261.848 20.8503Z" fill="#2284FF"/>
</g>
</g>
<defs>
<filter id="filter0_i_139_195" x="0" y="0.134575" width="362.952" height="81.0781" filterUnits="userSpaceOnUse" color-interpolation-filters="sRGB">
<feFlood flood-opacity="0" result="BackgroundImageFix"/>
<feBlend mode="normal" in="SourceGraphic" in2="BackgroundImageFix" result="shape"/>
<feColorMatrix in="SourceAlpha" type="matrix" values="0 0 0 0 0 0 0 0 0 0 0 0 0 0 0 0 0 0 127 0" result="hardAlpha"/>
<feOffset dy="4"/>
<feGaussianBlur stdDeviation="2"/>
<feComposite in2="hardAlpha" operator="arithmetic" k2="-1" k3="1"/>
<feColorMatrix type="matrix" values="0 0 0 0 0 0 0 0 0 0 0 0 0 0 0 0 0 0 0.25 0"/>
<feBlend mode="normal" in2="shape" result="effect1_innerShadow_139_195"/>
</filter>
<filter id="filter1_d_139_195" x="20.4248" y="0.134575" width="293.602" height="85.0781" filterUnits="userSpaceOnUse" color-interpolation-filters="sRGB">
<feFlood flood-opacity="0" result="BackgroundImageFix"/>
<feColorMatrix in="SourceAlpha" type="matrix" values="0 0 0 0 0 0 0 0 0 0 0 0 0 0 0 0 0 0 127 0" result="hardAlpha"/>
<feOffset dy="4"/>
<feGaussianBlur stdDeviation="2"/>
<feComposite in2="hardAlpha" operator="out"/>
<feColorMatrix type="matrix" values="0 0 0 0 0 0 0 0 0 0 0 0 0 0 0 0 0 0 0.25 0"/>
<feBlend mode="normal" in2="BackgroundImageFix" result="effect1_dropShadow_139_195"/>
<feBlend mode="normal" in="SourceGraphic" in2="effect1_dropShadow_139_195" result="shape"/>
</filter>
</defs>
</svg>
