<svg width="78" height="43" viewBox="0 0 78 43" fill="none" xmlns="http://www.w3.org/2000/svg">
<g filter="url(#filter0_i_135_2828)">
<g filter="url(#filter1_d_135_2828)">
<mask id="path-1-inside-1_135_2828" fill="white">
<path d="M26.0749 11.0905L26.5504 11.7909L25.7372 13.4143C26.67 14.2176 27.4345 15.3662 28.0308 16.8599C28.6457 18.3537 28.9527 19.8099 28.9517 21.2286C28.9506 22.6472 28.8004 23.8978 28.501 24.9803C28.2202 26.0441 27.7902 27.0424 27.2109 27.9753C26.6315 28.8896 25.819 29.617 24.7733 30.1576C23.7462 30.6982 22.5514 30.968 21.1887 30.9671C19.2474 30.9657 17.6239 30.2272 16.3183 28.7516C15.0127 27.276 14.3608 25.2409 14.3626 22.6462C14.3645 20.0329 15.1875 17.6535 16.8317 15.508C17.6912 14.3699 18.9145 13.4094 20.5018 12.6266C22.089 11.825 23.9467 11.313 26.0749 11.0905ZM21.8904 28.6436C23.5891 28.5888 24.8869 27.955 25.7837 26.7423C26.6993 25.5296 27.1576 24.1113 27.1588 22.4873C27.1599 20.8446 26.8904 19.2111 26.3502 17.5867C25.8101 15.9623 25.055 14.6645 24.085 13.6931C21.7141 14.0274 19.9495 14.9128 18.7911 16.3494C17.6328 17.7672 17.0528 19.5588 17.0513 21.7241C17.0498 23.8708 17.5152 25.5604 18.4477 26.7931C19.3988 28.0258 20.5464 28.6426 21.8904 28.6436ZM31.8071 24.1426C31.49 23.8437 31.3316 23.4703 31.3319 23.0223C31.332 22.8729 31.3601 22.7983 31.4161 22.7983C31.808 22.8733 32.3867 22.911 33.152 22.9116L33.684 22.9119C33.613 17.7039 32.8688 14.2687 31.4513 12.6064L32.7687 10.7313C34.168 11.6843 36.1646 12.731 38.7584 13.8716C39.5608 14.2268 40.3445 14.6287 41.1096 15.0772C42.6209 15.9556 43.3761 17.0948 43.3751 18.4948C43.3741 19.8948 42.7479 21.1264 41.4965 22.1895C40.2637 23.2526 38.2193 23.8952 35.3631 24.1171C35.2502 25.3864 35.006 27.5329 34.6305 30.5566C34.3503 30.8364 34.0516 30.9762 33.7342 30.976C33.4356 30.9758 33.2863 30.9477 33.2863 30.8917C33.5308 28.3345 33.6631 26.0946 33.6831 24.1719L33.5431 24.1718C32.7591 24.1713 32.1804 24.1615 31.8071 24.1426ZM35.0904 13.8689C35.4065 15.6425 35.564 17.3413 35.5628 18.9653C35.5616 20.5893 35.5234 21.8586 35.4481 22.7732C37.1283 22.5131 38.398 22.0193 39.2571 21.2919C40.1163 20.5459 40.5463 19.6968 40.547 18.7448C40.5476 17.8862 40.2867 17.1953 39.7644 16.6723C39.4846 16.3734 39.2235 16.1212 38.981 15.9157C38.7571 15.7102 38.3746 15.4673 37.8335 15.1869C36.9938 14.757 36.0794 14.3176 35.0904 13.8689ZM56.217 11.812L55.2913 14.2193C54.7687 14.1443 54.218 14.1066 53.6394 14.1061C52.3327 14.1052 51.1939 14.3377 50.2229 14.8037C49.2519 15.251 48.5141 15.8478 48.0096 16.5941C47.0566 18.0681 46.5794 19.6825 46.5782 21.4371C46.5765 23.7331 46.9299 25.488 47.6384 26.7019C48.3469 27.897 49.1958 28.495 50.1851 28.4957C51.4545 28.4966 52.5188 27.9933 53.3782 26.986C54.2376 25.9786 54.9667 24.4298 55.5655 22.3395C55.603 22.1902 55.6684 22.1156 55.7617 22.1157C56.023 22.1158 56.3123 22.2467 56.6294 22.5083C56.2543 25.0653 55.3941 27.1087 54.049 28.6384C52.7226 30.1682 51.2287 30.9324 49.5674 30.9313C47.9247 30.9301 46.5999 30.2011 45.593 28.7444C44.586 27.2877 44.0834 25.3647 44.0851 22.9753C44.0865 20.922 44.6199 18.9997 45.6852 17.2085C46.2645 16.2196 46.9838 15.3241 47.8431 14.522C48.7023 13.72 49.8135 13.0114 51.1766 12.3964C52.5397 11.7814 54.0613 11.3438 55.7415 11.0836L56.217 11.812Z"/>
</mask>
<path d="M26.0749 11.0905L26.5504 11.7909L25.7372 13.4143C26.67 14.2176 27.4345 15.3662 28.0308 16.8599C28.6457 18.3537 28.9527 19.8099 28.9517 21.2286C28.9506 22.6472 28.8004 23.8978 28.501 24.9803C28.2202 26.0441 27.7902 27.0424 27.2109 27.9753C26.6315 28.8896 25.819 29.617 24.7733 30.1576C23.7462 30.6982 22.5514 30.968 21.1887 30.9671C19.2474 30.9657 17.6239 30.2272 16.3183 28.7516C15.0127 27.276 14.3608 25.2409 14.3626 22.6462C14.3645 20.0329 15.1875 17.6535 16.8317 15.508C17.6912 14.3699 18.9145 13.4094 20.5018 12.6266C22.089 11.825 23.9467 11.313 26.0749 11.0905ZM21.8904 28.6436C23.5891 28.5888 24.8869 27.955 25.7837 26.7423C26.6993 25.5296 27.1576 24.1113 27.1588 22.4873C27.1599 20.8446 26.8904 19.2111 26.3502 17.5867C25.8101 15.9623 25.055 14.6645 24.085 13.6931C21.7141 14.0274 19.9495 14.9128 18.7911 16.3494C17.6328 17.7672 17.0528 19.5588 17.0513 21.7241C17.0498 23.8708 17.5152 25.5604 18.4477 26.7931C19.3988 28.0258 20.5464 28.6426 21.8904 28.6436ZM31.8071 24.1426C31.49 23.8437 31.3316 23.4703 31.3319 23.0223C31.332 22.8729 31.3601 22.7983 31.4161 22.7983C31.808 22.8733 32.3867 22.911 33.152 22.9116L33.684 22.9119C33.613 17.7039 32.8688 14.2687 31.4513 12.6064L32.7687 10.7313C34.168 11.6843 36.1646 12.731 38.7584 13.8716C39.5608 14.2268 40.3445 14.6287 41.1096 15.0772C42.6209 15.9556 43.3761 17.0948 43.3751 18.4948C43.3741 19.8948 42.7479 21.1264 41.4965 22.1895C40.2637 23.2526 38.2193 23.8952 35.3631 24.1171C35.2502 25.3864 35.006 27.5329 34.6305 30.5566C34.3503 30.8364 34.0516 30.9762 33.7342 30.976C33.4356 30.9758 33.2863 30.9477 33.2863 30.8917C33.5308 28.3345 33.6631 26.0946 33.6831 24.1719L33.5431 24.1718C32.7591 24.1713 32.1804 24.1615 31.8071 24.1426ZM35.0904 13.8689C35.4065 15.6425 35.564 17.3413 35.5628 18.9653C35.5616 20.5893 35.5234 21.8586 35.4481 22.7732C37.1283 22.5131 38.398 22.0193 39.2571 21.2919C40.1163 20.5459 40.5463 19.6968 40.547 18.7448C40.5476 17.8862 40.2867 17.1953 39.7644 16.6723C39.4846 16.3734 39.2235 16.1212 38.981 15.9157C38.7571 15.7102 38.3746 15.4673 37.8335 15.1869C36.9938 14.757 36.0794 14.3176 35.0904 13.8689ZM56.217 11.812L55.2913 14.2193C54.7687 14.1443 54.218 14.1066 53.6394 14.1061C52.3327 14.1052 51.1939 14.3377 50.2229 14.8037C49.2519 15.251 48.5141 15.8478 48.0096 16.5941C47.0566 18.0681 46.5794 19.6825 46.5782 21.4371C46.5765 23.7331 46.9299 25.488 47.6384 26.7019C48.3469 27.897 49.1958 28.495 50.1851 28.4957C51.4545 28.4966 52.5188 27.9933 53.3782 26.986C54.2376 25.9786 54.9667 24.4298 55.5655 22.3395C55.603 22.1902 55.6684 22.1156 55.7617 22.1157C56.023 22.1158 56.3123 22.2467 56.6294 22.5083C56.2543 25.0653 55.3941 27.1087 54.049 28.6384C52.7226 30.1682 51.2287 30.9324 49.5674 30.9313C47.9247 30.9301 46.5999 30.2011 45.593 28.7444C44.586 27.2877 44.0834 25.3647 44.0851 22.9753C44.0865 20.922 44.6199 18.9997 45.6852 17.2085C46.2645 16.2196 46.9838 15.3241 47.8431 14.522C48.7023 13.72 49.8135 13.0114 51.1766 12.3964C52.5397 11.7814 54.0613 11.3438 55.7415 11.0836L56.217 11.812Z" fill="#418DFD"/>
<path d="M26.0749 11.0905L26.9022 10.5288L26.5661 10.0337L25.9709 10.096L26.0749 11.0905ZM26.5504 11.7909L27.4445 12.2387L27.7071 11.7144L27.3777 11.2291L26.5504 11.7909ZM25.7372 13.4143L24.8431 12.9664L24.494 13.6634L25.0846 14.172L25.7372 13.4143ZM28.0308 16.8599L27.102 17.2307L27.106 17.2406L28.0308 16.8599ZM28.501 24.9803L27.5371 24.7136L27.5341 24.7251L28.501 24.9803ZM27.2109 27.9753L28.0556 28.5106L28.0604 28.5029L27.2109 27.9753ZM24.7733 30.1576L24.3141 29.2693L24.3075 29.2727L24.7733 30.1576ZM16.8317 15.508L17.6255 16.1162L17.6297 16.1106L16.8317 15.508ZM20.5018 12.6266L20.9441 13.5234L20.9525 13.5192L20.5018 12.6266ZM21.8904 28.6436L21.8897 29.6436L21.9061 29.6436L21.9226 29.643L21.8904 28.6436ZM25.7837 26.7423L24.9856 26.1398L24.9797 26.1477L25.7837 26.7423ZM26.3502 17.5867L27.2992 17.2712L26.3502 17.5867ZM24.085 13.6931L24.7926 12.9865L24.4398 12.6332L23.9454 12.7029L24.085 13.6931ZM18.7911 16.3494L19.5656 16.982L19.5696 16.9771L18.7911 16.3494ZM18.4477 26.7931L17.6501 27.3964L17.656 27.404L18.4477 26.7931ZM25.2475 11.6523L25.723 12.3526L27.3777 11.2291L26.9022 10.5288L25.2475 11.6523ZM25.6563 11.343L24.8431 12.9664L26.6313 13.8621L27.4445 12.2387L25.6563 11.343ZM25.0846 14.172C25.864 14.8432 26.5477 15.842 27.102 17.2307L28.9595 16.4892C28.3213 14.8903 27.4759 13.592 26.3898 12.6566L25.0846 14.172ZM27.106 17.2406C27.678 18.6301 27.9526 19.9569 27.9517 21.2279L29.9517 21.2293C29.9528 19.6629 29.6133 18.0773 28.9555 16.4793L27.106 17.2406ZM27.9517 21.2279C27.9507 22.5791 27.8073 23.737 27.5372 24.7136L29.4648 25.2469C29.7935 24.0586 29.9506 22.7154 29.9517 21.2293L27.9517 21.2279ZM27.5341 24.7251C27.2787 25.6929 26.8881 26.5995 26.3613 27.4478L28.0604 28.5029C28.6923 27.4854 29.1618 26.3952 29.4679 25.2354L27.5341 24.7251ZM26.3662 27.4401C25.89 28.1916 25.2165 28.8028 24.3141 29.2693L25.2325 31.0459C26.4215 30.4313 27.3731 29.5876 28.0555 28.5106L26.3662 27.4401ZM24.3075 29.2727C23.4474 29.7254 22.4179 29.9679 21.1894 29.9671L21.188 31.9671C22.6849 31.9681 24.0451 31.671 25.2391 31.0425L24.3075 29.2727ZM21.1894 29.9671C19.5391 29.9659 18.1864 29.3539 17.0672 28.0889L15.5694 29.4142C17.0614 31.1005 18.9556 31.9655 21.188 31.9671L21.1894 29.9671ZM17.0672 28.0889C15.9692 26.8479 15.3609 25.0761 15.3626 22.6469L13.3626 22.6455C13.3607 25.4056 14.0562 27.7041 15.5694 29.4142L17.0672 28.0889ZM15.3626 22.6469C15.3643 20.2612 16.1099 18.0938 17.6254 16.1162L16.038 14.8997C14.2651 17.2131 13.3647 19.8045 13.3626 22.6455L15.3626 22.6469ZM17.6297 16.1106C18.3753 15.1234 19.4637 14.2536 20.9441 13.5234L20.0594 11.7297C18.3653 12.5653 17.0071 13.6164 16.0337 14.9053L17.6297 16.1106ZM20.9525 13.5192C22.4118 12.7823 24.1476 12.2975 26.1788 12.0851L25.9709 10.096C23.7458 10.3286 21.7663 10.8677 20.051 11.7339L20.9525 13.5192ZM21.9226 29.643C23.8829 29.5798 25.4844 28.8288 26.5877 27.3369L24.9797 26.1477C24.2893 27.0812 23.2952 27.5977 21.8581 27.6441L21.9226 29.643ZM26.5818 27.3449C27.6375 25.9465 28.1575 24.3133 28.1588 22.488L26.1588 22.4866C26.1577 23.9093 25.761 25.1128 24.9856 26.1398L26.5818 27.3449ZM28.1588 22.488C28.16 20.7334 27.8718 18.9932 27.2992 17.2712L25.4013 17.9023C25.909 19.429 26.1598 20.9559 26.1588 22.4866L28.1588 22.488ZM27.2992 17.2712C26.7218 15.5351 25.896 14.0915 24.7926 12.9865L23.3774 14.3997C24.2139 15.2375 24.8983 16.3896 25.4013 17.9023L27.2992 17.2712ZM23.9454 12.7029C21.4004 13.0618 19.3733 14.0343 18.0127 15.7216L19.5696 16.9771C20.5257 15.7913 22.0278 14.9931 24.2246 14.6833L23.9454 12.7029ZM18.0167 15.7167C16.6871 17.3442 16.053 19.3717 16.0513 21.7234L18.0513 21.7248C18.0527 19.7459 18.5785 18.1902 19.5655 16.982L18.0167 15.7167ZM16.0513 21.7234C16.0497 24.005 16.5436 25.9336 17.6502 27.3964L19.2452 26.1898C18.4869 25.1873 18.0499 23.7365 18.0513 21.7248L16.0513 21.7234ZM17.656 27.404C18.7624 28.8379 20.1844 29.6423 21.8897 29.6436L21.8911 27.6436C20.9083 27.6429 20.0352 27.2136 19.2394 26.1822L17.656 27.404ZM31.8071 24.1426L31.1212 24.8703L31.389 25.1227L31.7565 25.1413L31.8071 24.1426ZM31.4161 22.7983L31.6039 21.8161L31.5112 21.7984L31.4168 21.7983L31.4161 22.7983ZM33.684 22.9119L33.6833 23.9119L34.6977 23.9127L34.6839 22.8983L33.684 22.9119ZM31.4513 12.6064L30.6331 12.0315L30.1876 12.6656L30.6904 13.2552L31.4513 12.6064ZM32.7686 10.7313L33.3316 9.90477L32.517 9.35L31.9504 10.1564L32.7686 10.7313ZM38.7584 13.8716L39.1632 12.9572L39.1609 12.9561L38.7584 13.8716ZM41.1096 15.0772L40.6038 15.9399L40.6071 15.9418L41.1096 15.0772ZM41.4965 22.1895L40.849 21.4274L40.8434 21.4322L41.4965 22.1895ZM35.3631 24.1171L35.2856 23.1202L34.442 23.1857L34.3671 24.0285L35.3631 24.1171ZM34.6305 30.5566L35.3372 31.2642L35.5805 31.0212L35.6229 30.6799L34.6305 30.5566ZM33.2863 30.8917L32.2908 30.7965L32.2863 30.8436L32.2863 30.891L33.2863 30.8917ZM33.6831 24.1719L34.683 24.1824L34.6936 23.1727L33.6838 23.1719L33.6831 24.1719ZM35.0904 13.8689L35.5036 12.9583L33.7724 12.1729L34.1059 14.0444L35.0904 13.8689ZM35.4481 22.7732L34.4515 22.6911L34.3473 23.9555L35.6011 23.7614L35.4481 22.7732ZM39.2571 21.2919L39.9033 22.0552L39.9128 22.047L39.2571 21.2919ZM39.7644 16.6723L39.0344 17.3557L39.0454 17.3675L39.0568 17.3789L39.7644 16.6723ZM38.981 15.9157L38.3047 16.6524L38.3193 16.6658L38.3345 16.6786L38.981 15.9157ZM37.8335 15.1869L38.2935 14.299L38.2892 14.2968L37.8335 15.1869ZM32.493 23.4149C32.3828 23.311 32.3318 23.204 32.3319 23.023L30.3319 23.0216C30.3314 23.7366 30.5972 24.3764 31.1212 24.8703L32.493 23.4149ZM32.3319 23.023C32.3319 22.9824 32.3395 23.072 32.2891 23.2061C32.2614 23.2798 32.1944 23.4259 32.0431 23.5602C31.8712 23.7128 31.6472 23.7985 31.4154 23.7983L31.4168 21.7983C31.1569 21.7981 30.9084 21.8931 30.7155 22.0644C30.5432 22.2174 30.4587 22.3915 30.4169 22.5025C30.3385 22.7113 30.332 22.9128 30.3319 23.0216L32.3319 23.023ZM31.2283 23.7805C31.7148 23.8736 32.3692 23.911 33.1513 23.9116L33.1527 21.9116C32.4042 21.911 31.9013 21.873 31.6039 21.8161L31.2283 23.7805ZM33.1513 23.9116L33.6833 23.9119L33.6847 21.9119L33.1527 21.9116L33.1513 23.9116ZM34.6839 22.8983C34.6479 20.2563 34.4411 18.0235 34.0499 16.2178C33.6619 14.4268 33.0743 12.9684 32.2122 11.9575L30.6904 13.2552C31.2459 13.9066 31.7391 14.9971 32.0953 16.6412C32.4483 18.2707 32.6491 20.3596 32.6841 22.9256L34.6839 22.8983ZM32.2696 13.1812L33.5869 11.3062L31.9504 10.1564L30.6331 12.0315L32.2696 13.1812ZM32.2058 11.5578C33.6781 12.5606 35.738 13.6359 38.3559 14.787L39.1609 12.9561C36.5911 11.8262 34.6578 10.808 33.3316 9.90477L32.2058 11.5578ZM38.3536 14.786C39.121 15.1257 39.8711 15.5103 40.6038 15.9399L41.6154 14.2146C40.818 13.7471 40.0006 13.3279 39.1632 12.9572L38.3536 14.786ZM40.6071 15.9418C41.8994 16.6929 42.3758 17.543 42.3751 18.4941L44.3751 18.4956C44.3764 16.6467 43.3424 15.2183 41.6121 14.2126L40.6071 15.9418ZM42.3751 18.4941C42.3744 19.5491 41.9198 20.5178 40.8491 21.4274L42.1439 22.9516C43.5761 21.735 44.3739 20.2406 44.3751 18.4956L42.3751 18.4941ZM40.8434 21.4322C39.8546 22.285 38.0725 22.9036 35.2856 23.1202L35.4406 25.1141C38.3661 24.8868 40.6729 24.2202 42.1496 22.9468L40.8434 21.4322ZM34.3671 24.0285C34.2559 25.2787 34.0136 27.4098 33.6382 30.4334L35.6229 30.6799C35.9984 27.656 36.2446 25.4941 36.3592 24.2057L34.3671 24.0285ZM33.9239 29.849C33.8499 29.9229 33.7982 29.9536 33.7725 29.9656C33.7506 29.9758 33.7411 29.976 33.735 29.976L33.7335 31.976C34.3783 31.9764 34.9184 31.6824 35.3372 31.2642L33.9239 29.849ZM33.735 29.976C33.6004 29.9759 33.5638 29.9683 33.5833 29.972C33.5837 29.9721 33.6821 29.9878 33.8052 30.0572C33.9206 30.1222 34.2867 30.3769 34.2863 30.8924L32.2863 30.891C32.2859 31.4344 32.6707 31.7136 32.8234 31.7997C32.9838 31.8901 33.1381 31.9233 33.2133 31.9375C33.382 31.9693 33.5695 31.9759 33.7335 31.976L33.735 29.976ZM34.2818 30.9868C34.5281 28.4102 34.6626 26.1409 34.683 24.1824L32.6831 24.1615C32.6635 26.0483 32.5335 28.2588 32.2908 30.7965L34.2818 30.9868ZM33.6838 23.1719L33.5438 23.1718L33.5424 25.1718L33.6824 25.1719L33.6838 23.1719ZM33.5438 23.1718C32.7626 23.1713 32.2047 23.1615 31.8578 23.1439L31.7565 25.1413C32.1561 25.1616 32.7556 25.1713 33.5424 25.1718L33.5438 23.1718ZM34.1059 14.0444C34.4128 15.766 34.5639 17.4056 34.5628 18.9646L36.5628 18.966C36.564 17.2769 36.4002 15.519 36.0749 13.6935L34.1059 14.0444ZM34.5628 18.9646C34.5616 20.5786 34.5235 21.8165 34.4515 22.6911L36.4447 22.8553C36.5233 21.9006 36.5616 20.5999 36.5628 18.966L34.5628 18.9646ZM35.6011 23.7614C37.3771 23.4865 38.8493 22.9474 39.9033 22.0551L38.611 20.5287C37.9466 21.0912 36.8795 21.5397 35.2951 21.785L35.6011 23.7614ZM39.9128 22.047C40.9437 21.1518 41.546 20.0437 41.547 18.7455L39.547 18.7441C39.5465 19.35 39.2889 19.9399 38.6015 20.5368L39.9128 22.047ZM41.547 18.7455C41.5477 17.668 41.2121 16.7068 40.472 15.9657L39.0568 17.3789C39.3613 17.6838 39.5474 18.1043 39.547 18.7441L41.547 18.7455ZM40.4944 15.9888C40.1954 15.6694 39.9063 15.389 39.6274 15.1528L38.3345 16.6786C38.5407 16.8534 38.7739 17.0774 39.0344 17.3557L40.4944 15.9888ZM39.6572 15.179C39.3316 14.8801 38.8511 14.5879 38.2935 14.299L37.3734 16.0748C37.8981 16.3467 38.1826 16.5403 38.3047 16.6524L39.6572 15.179ZM38.2892 14.2968C37.4336 13.8587 36.5049 13.4126 35.5036 12.9583L34.6773 14.7796C35.654 15.2227 36.554 15.6552 37.3777 16.077L38.2892 14.2968ZM56.217 11.812L57.1504 12.1709L57.3339 11.6936L57.0544 11.2653L56.217 11.812ZM55.2913 14.2193L55.1492 15.2092L55.9385 15.3225L56.2247 14.5782L55.2913 14.2193ZM50.2229 14.8037L50.6413 15.712L50.6484 15.7087L50.6555 15.7053L50.2229 14.8037ZM48.0096 16.5941L47.1812 16.0341L47.1754 16.0426L47.1699 16.0512L48.0096 16.5941ZM47.6384 26.7019L46.7747 27.206L46.7782 27.2118L47.6384 26.7019ZM53.3782 26.986L52.6174 26.337L53.3782 26.986ZM55.5655 22.3395L56.5269 22.6149L56.5314 22.5989L56.5355 22.5827L55.5655 22.3395ZM56.6294 22.5083L57.6188 22.6534L57.7007 22.0955L57.2657 21.7368L56.6294 22.5083ZM54.049 28.6384L53.2981 27.9781L53.2935 27.9833L54.049 28.6384ZM45.593 28.7444L46.4156 28.1758L45.593 28.7444ZM45.6852 17.2085L46.5447 17.7196L46.548 17.714L45.6852 17.2085ZM47.8431 14.522L47.1607 13.791L47.8431 14.522ZM51.1766 12.3964L50.7653 11.4849L50.7653 11.4849L51.1766 12.3964ZM55.7415 11.0836L56.5789 10.537L56.2262 9.99669L55.5885 10.0954L55.7415 11.0836ZM55.2836 11.4531L54.3579 13.8604L56.2247 14.5782L57.1504 12.1709L55.2836 11.4531ZM55.4334 13.2295C54.8598 13.1471 54.2616 13.1066 53.6401 13.1061L53.6387 15.1061C54.1745 15.1065 54.6776 15.1415 55.1492 15.2092L55.4334 13.2295ZM53.6401 13.1061C52.2149 13.1051 50.9222 13.3589 49.7902 13.9022L50.6555 15.7053C51.4655 15.3166 52.4505 15.1053 53.6387 15.1061L53.6401 13.1061ZM49.8045 13.8955C48.6988 14.4048 47.8057 15.1103 47.1812 16.0341L48.8381 17.1542C49.2226 16.5854 49.805 16.0972 50.6413 15.712L49.8045 13.8955ZM47.1699 16.0512C46.1124 17.6867 45.5795 19.4893 45.5782 21.4364L47.5782 21.4378C47.5793 19.8756 48.0007 18.4496 48.8494 17.1371L47.1699 16.0512ZM45.5782 21.4364C45.5765 23.8092 45.937 25.7707 46.7748 27.206L48.5021 26.1978C47.9229 25.2054 47.5766 23.6571 47.5782 21.4378L45.5782 21.4364ZM46.7782 27.2118C47.5858 28.5742 48.7083 29.4946 50.1844 29.4957L50.1859 27.4957C49.6834 27.4953 49.108 27.2199 48.4986 26.1919L46.7782 27.2118ZM50.1844 29.4957C51.7609 29.4968 53.0989 28.8542 54.139 27.635L52.6174 26.337C51.9388 27.1325 51.148 27.4964 50.1859 27.4957L50.1844 29.4957ZM54.139 27.635C55.1321 26.4708 55.9108 24.7652 56.5269 22.6149L54.6042 22.0641C54.0226 24.0943 53.3431 25.4863 52.6174 26.337L54.139 27.635ZM56.5355 22.5827C56.5349 22.5852 56.5087 22.7006 56.3948 22.8306C56.3322 22.902 56.2424 22.9782 56.1221 23.0347C56.0002 23.092 55.8752 23.1157 55.761 23.1157L55.7624 21.1157C55.4074 21.1154 55.0997 21.2738 54.8905 21.5125C54.7112 21.7172 54.6336 21.9445 54.5956 22.0963L56.5355 22.5827ZM55.761 23.1157C55.7226 23.1156 55.7199 23.1058 55.7624 23.125C55.8069 23.1452 55.8839 23.1896 55.9932 23.2797L57.2657 21.7368C56.8663 21.4074 56.3559 21.1161 55.7624 21.1157L55.761 23.1157ZM55.64 22.3631C55.2854 24.7801 54.4853 26.6279 53.2981 27.9781L54.8 29.2988C56.303 27.5895 57.2231 25.3506 57.6188 22.6534L55.64 22.3631ZM53.2935 27.9833C52.1119 29.3461 50.8766 29.9322 49.5681 29.9313L49.5667 31.9313C51.5809 31.9327 53.3334 30.9902 54.8046 29.2936L53.2935 27.9833ZM49.5681 29.9313C48.2827 29.9303 47.2531 29.3874 46.4156 28.1758L44.7704 29.313C45.9468 31.0149 47.5668 31.9298 49.5667 31.9313L49.5681 29.9313ZM46.4156 28.1758C45.5584 26.9357 45.0835 25.2316 45.0851 22.9761L43.0851 22.9746C43.0833 25.4978 43.6136 27.6397 44.7704 29.313L46.4156 28.1758ZM45.0851 22.9761C45.0864 21.1052 45.5698 19.3589 46.5447 17.7196L44.8257 16.6973C43.67 18.6406 43.0867 20.7388 43.0851 22.9746L45.0851 22.9761ZM46.548 17.714C47.0772 16.8107 47.7351 15.9907 48.5254 15.253L47.1607 13.791C46.2326 14.6574 45.4519 15.6284 44.8223 16.703L46.548 17.714ZM48.5254 15.253C49.2864 14.5427 50.2986 13.8896 51.5879 13.3079L50.7653 11.4849C49.3284 12.1332 48.1182 12.8972 47.1607 13.791L48.5254 15.253ZM51.5879 13.3079C52.8584 12.7346 54.2916 12.32 55.8945 12.0719L55.5885 10.0954C53.8311 10.3675 52.221 10.8281 50.7653 11.4849L51.5879 13.3079ZM54.9042 11.6303L55.3797 12.3586L57.0544 11.2653L56.5789 10.537L54.9042 11.6303Z" fill="#036AFF" mask="url(#path-1-inside-1_135_2828)"/>
</g>
</g>
<defs>
<filter id="filter0_i_135_2828" x="0" y="0" width="77.2896" height="46.1247" filterUnits="userSpaceOnUse" color-interpolation-filters="sRGB">
<feFlood flood-opacity="0" result="BackgroundImageFix"/>
<feBlend mode="normal" in="SourceGraphic" in2="BackgroundImageFix" result="shape"/>
<feColorMatrix in="SourceAlpha" type="matrix" values="0 0 0 0 0 0 0 0 0 0 0 0 0 0 0 0 0 0 127 0" result="hardAlpha"/>
<feOffset dy="4"/>
<feGaussianBlur stdDeviation="2"/>
<feComposite in2="hardAlpha" operator="arithmetic" k2="-1" k3="1"/>
<feColorMatrix type="matrix" values="0 0 0 0 0 0 0 0 0 0 0 0 0 0 0 0 0 0 0.25 0"/>
<feBlend mode="normal" in2="shape" result="effect1_innerShadow_135_2828"/>
</filter>
<filter id="filter1_d_135_2828" x="10.3569" y="10.7182" width="50.2808" height="28.2741" filterUnits="userSpaceOnUse" color-interpolation-filters="sRGB">
<feFlood flood-opacity="0" result="BackgroundImageFix"/>
<feColorMatrix in="SourceAlpha" type="matrix" values="0 0 0 0 0 0 0 0 0 0 0 0 0 0 0 0 0 0 127 0" result="hardAlpha"/>
<feOffset dy="4"/>
<feGaussianBlur stdDeviation="2"/>
<feComposite in2="hardAlpha" operator="out"/>
<feColorMatrix type="matrix" values="0 0 0 0 0 0 0 0 0 0 0 0 0 0 0 0 0 0 0.25 0"/>
<feBlend mode="normal" in2="BackgroundImageFix" result="effect1_dropShadow_135_2828"/>
<feBlend mode="normal" in="SourceGraphic" in2="effect1_dropShadow_135_2828" result="shape"/>
</filter>
</defs>
</svg>
