<?xml version="1.0" encoding="UTF-8"?>
<svg version="1.1" xmlns="http://www.w3.org/2000/svg" width="30" height="30">
<path d="M0 0 C10.85270586 8.27398159 19.50285809 19.01583981 22.59765625 32.62890625 C24.09642005 45.18650971 24.60731488 58.39802282 19 70 C18.649375 70.77988281 18.29875 71.55976562 17.9375 72.36328125 C11.26578707 85.77620413 -0.23521339 95.05858356 -14.08203125 100.0546875 C-27.8654505 104.51999869 -44.03444037 103.34484833 -57 97 C-60.96114759 94.62728252 -64.4977593 92.00357729 -68 89 C-68.65484375 88.45601563 -69.3096875 87.91203125 -69.984375 87.3515625 C-77.51516518 80.52053601 -82.55462343 70.80031687 -85 61 C-85.18175781 60.27554688 -85.36351563 59.55109375 -85.55078125 58.8046875 C-87.95121505 43.81763128 -86.2071768 28.21207175 -77.7421875 15.3671875 C-69.40532661 4.0395245 -58.9745842 -4.69741272 -45 -8 C-43.88818359 -8.27263672 -43.88818359 -8.27263672 -42.75390625 -8.55078125 C-27.73403107 -11.00083181 -12.65225909 -8.63538802 0 0 Z " fill="#FCFC65" transform="translate(86,9)"/>
<path d="M0 0 C15.18 0 30.36 0 46 0 C46 1.98 46 3.96 46 6 C44.68 6 43.36 6 42 6 C41.979375 7.051875 41.95875 8.10375 41.9375 9.1875 C40.91013116 17.64818457 35.36769683 25.61327022 30 32 C31.45848022 35.0605414 33.14218409 37.95816575 34.8684082 40.87426758 C37.64735957 45.58750617 40.23471342 50.03624594 41.8125 55.3125 C42.4003125 57.1378125 42.4003125 57.1378125 43 59 C43.99 59.33 44.98 59.66 46 60 C46 61.98 46 63.96 46 66 C30.82 66 15.64 66 0 66 C0 64.02 0 62.04 0 60 C1.32 60 2.64 60 4 60 C4.309375 58.14375 4.309375 58.14375 4.625 56.25 C6.46250783 47.95496463 10.55094581 40.4633803 16 34 C14.54815191 30.97877326 12.89389322 28.15831007 11.125 25.3125 C3.20605469 12.15307617 3.20605469 12.15307617 4 6 C2.68 6 1.36 6 0 6 C0 4.02 0 2.04 0 0 Z " fill="#030301" transform="translate(31,22)"/>
<path d="M0 0 C10.85270586 8.27398159 19.50285809 19.01583981 22.59765625 32.62890625 C24.09642005 45.18650971 24.60731488 58.39802282 19 70 C18.649375 70.77988281 18.29875 71.55976562 17.9375 72.36328125 C11.26578707 85.77620413 -0.23521339 95.05858356 -14.08203125 100.0546875 C-27.8654505 104.51999869 -44.03444037 103.34484833 -57 97 C-60.96114759 94.62728252 -64.4977593 92.00357729 -68 89 C-68.65484375 88.45601563 -69.3096875 87.91203125 -69.984375 87.3515625 C-77.51516518 80.52053601 -82.55462343 70.80031687 -85 61 C-85.18175781 60.27554688 -85.36351563 59.55109375 -85.55078125 58.8046875 C-87.95121505 43.81763128 -86.2071768 28.21207175 -77.7421875 15.3671875 C-69.40532661 4.0395245 -58.9745842 -4.69741272 -45 -8 C-43.88818359 -8.27263672 -43.88818359 -8.27263672 -42.75390625 -8.55078125 C-27.73403107 -11.00083181 -12.65225909 -8.63538802 0 0 Z M-71 12 C-80.40058086 24.53952914 -85.04292852 38.36459038 -83 54 C-80.09977276 69.35330171 -72.41544902 82.29674805 -59.5 91.25 C-47.56169464 98.84526703 -34.71889857 100.71288267 -20.87109375 98.5 C-6.70823131 94.95424781 5.38005411 86.60134336 13 74 C20.11075427 60.4915476 22.61448807 46.06689958 18.4375 31.1875 C13.21322613 16.4896309 4.79399392 6.21400179 -9 -1 C-30.88327054 -10.55737998 -54.81912403 -6.1694348 -71 12 Z " fill="#B0B0AB" transform="translate(86,9)"/>
<path d="M0 0 C11.88 0 23.76 0 36 0 C33.01210855 9.95963817 30.07389443 19.11344299 22 26 C23.34326386 28.89121554 24.89009623 31.26115693 26.875 33.75 C31.49762258 39.84191582 34.36108703 45.33304434 35 53 C32.77037928 50.82426739 30.71564939 48.55134308 28.6875 46.1875 C26.42040234 43.55863143 24.10189199 41.11488401 21.5625 38.75 C19 36 19 36 19 32 C18.34 32 17.68 32 17 32 C16.93554688 32.72445312 16.87109375 33.44890625 16.8046875 34.1953125 C15.74774341 37.87922443 13.94629778 39.31538781 11.125 41.875 C7.0559658 45.75802121 4.63241408 48.63635373 3 54 C2.34 54 1.68 54 1 54 C1.17723382 44.96107508 5.58047126 36.61981542 11.734375 30.10546875 C12.85585938 29.06326172 12.85585938 29.06326172 14 28 C11.62748068 24.73570889 9.173938 21.78001704 7.125 18.75 C4.08309834 14.28973267 1.91989246 9.66273739 0 4 C0 2.68 0 1.36 0 0 Z " fill="#FFFFFF" transform="translate(31,22)"/>
</svg>