<svg xmlns="http://www.w3.org/2000/svg" width="24" height="24" viewBox="0 0 24 24">
    <g data-name="Group 161">
        <path data-name="Path 36" d="M17498.311 22633.719a.457.457 0 0 1 0-.914h2.381v-2.209a6.226 6.226 0 0 1-5.783-6.2v-2.687a.457.457 0 1 1 .914 0v2.688a5.325 5.325 0 0 0 10.65 0v-2.687a.457.457 0 1 1 .914 0v2.688a6.226 6.226 0 0 1-5.781 6.2v2.209h2.379a.457.457 0 0 1 0 .914zm-.205-9.48v-4.85a3.116 3.116 0 1 1 6.209 0v4.85a3.116 3.116 0 1 1-6.209 0zm.762-4.85v4.85a2.351 2.351 0 1 0 4.686 0v-4.85a2.352 2.352 0 1 0-4.686 0z" transform="translate(-17488.907 -22613)" style="stroke:#fff;stroke-width:.4px;fill:#fff"/>
    </g>
</svg>
