<svg xmlns="http://www.w3.org/2000/svg" width="13.941" height="13.941" viewBox="0 0 13.941 13.941">
    <path data-name="Path 25967" d="M37.971 12.935A4.066 4.066 0 1 0 42.037 17a4.066 4.066 0 0 0-4.066-4.066zm0 6.971a2.9 2.9 0 1 1 2.9-2.9 2.9 2.9 0 0 1-2.9 2.9zm-.581-8.132v-1.162a.581.581 0 1 1 1.162 0v1.162a.581.581 0 1 1-1.162 0zm-4.348 1.066a.581.581 0 1 1 .821-.821l.821.821a.581.581 0 1 1-.821.821zm-.3 4.743h-1.161a.581.581 0 0 1 0-1.162h1.162a.581.581 0 0 1 0 1.162zm1.942 2.654a.581.581 0 0 1 0 .821l-.821.821a.581.581 0 1 1-.821-.821l.821-.821a.581.581 0 0 1 .821 0zm3.867 1.993v1.162a.581.581 0 0 1-1.162 0V22.23a.581.581 0 0 1 1.162 0zm4.349-1.175a.581.581 0 1 1-.821.821l-.821-.821a.581.581 0 0 1 .821-.818zM44.941 17a.581.581 0 0 1-.581.581H43.2a.581.581 0 1 1 0-1.162h1.162a.581.581 0 0 1 .579.581zm-3.685-3.341a.581.581 0 0 1 0-.821l.821-.821a.581.581 0 1 1 .821.821l-.821.821a.581.581 0 0 1-.82.002z" transform="translate(-31 -10.031)"/>
</svg>
