<svg xmlns="http://www.w3.org/2000/svg" width="18.247" height="18.247" viewBox="0 0 18.247 18.247">
    <path data-name="Path 26051" d="M40.124 13.832a5.322 5.322 0 1 0 5.322 5.322 5.322 5.322 0 0 0-5.322-5.322zm0 9.124a3.8 3.8 0 1 1 3.8-3.8 3.8 3.8 0 0 1-3.8 3.8zm-.76-10.644v-1.521a.76.76 0 1 1 1.521 0v1.521a.76.76 0 1 1-1.521 0zm-5.691 1.4a.76.76 0 1 1 1.075-1.075l1.075 1.075a.76.76 0 1 1-1.075 1.075zm-.392 6.208H31.76a.76.76 0 0 1 0-1.521h1.521a.76.76 0 0 1 0 1.521zm2.542 3.474a.76.76 0 0 1 0 1.075l-1.075 1.075a.76.76 0 1 1-1.075-1.075l1.075-1.075a.76.76 0 0 1 1.075 0zM40.884 26v1.521a.76.76 0 1 1-1.521 0V26a.76.76 0 1 1 1.521 0zm5.691-1.537a.76.76 0 1 1-1.075 1.072l-1.075-1.075a.76.76 0 0 1 1.075-1.071zm2.672-5.305a.76.76 0 0 1-.76.76h-1.521a.76.76 0 0 1 0-1.521h1.521a.76.76 0 0 1 .76.758zm-4.823-4.372a.76.76 0 0 1 0-1.075l1.076-1.079a.76.76 0 1 1 1.075 1.075L45.5 14.782a.76.76 0 0 1-1.075 0z" transform="translate(-31 -10.031)" style="fill:#d8a134"/>
</svg>
