<svg xmlns="http://www.w3.org/2000/svg" width="48.976" height="52.648" viewBox="0 0 48.976 52.648">
    <g data-name="Group 6086">
        <path data-name="Path 20459" d="M35.42 10.364a3.8 3.8 0 0 0-3.8 3.8v4.757a6.344 6.344 0 1 1 7.594 0v-4.76a3.8 3.8 0 0 0-3.8-3.8zM18.746 35.558a3.8 3.8 0 0 0-4.284 6.268l3.73 3.042a6.344 6.344 0 1 1 4.989-6.44zm36.432-3.988a3.784 3.784 0 0 0-2.8 1.237 3.789 3.789 0 0 0-6.59-2.411 3.788 3.788 0 0 0-6.574-2.333v-8.52a6.844 6.844 0 1 0-9.336-9.706.219.219 0 0 0-.028.025l-3.622 4.843a.252.252 0 0 0 .2.4.249.249 0 0 0 .2-.1l2.171-2.9a6.8 6.8 0 0 0 2.818 7.439v16.25a4.406 4.406 0 0 1-6.8 3.7l-.35-.226L26.221 37a.252.252 0 1 0-.4-.308l-1.772 2.3-.358-.231v-.089a6.835 6.835 0 0 0-10.379-5.858l2.4-3.209a.252.252 0 1 0-.4-.3l-4.161 5.571a6.834 6.834 0 0 0 7.523 10.39l17.5 14.271a.5.5 0 1 0 .637-.782L15.063 41.018A2.789 2.789 0 1 1 18.19 36.4l6.147 3.972a5.409 5.409 0 0 0 8.294-4.578V14.161a2.789 2.789 0 1 1 5.577 0v18.27a.5.5 0 0 0 1.009 0v-1.8a2.789 2.789 0 1 1 5.578 0v2.321a.5.5 0 1 0 1.008 0 2.789 2.789 0 1 1 5.577 0v2.46a.5.5 0 1 0 1.009 0v-.046a2.789 2.789 0 0 1 5.578 0v10.817a21.567 21.567 0 0 1-1.6 7.51.5.5 0 0 0 .258.664.5.5 0 0 0 .2.043.5.5 0 0 0 .462-.3 22.263 22.263 0 0 0 1.688-7.914V35.367a3.8 3.8 0 0 0-3.8-3.8zm-27.241 3.2 1.324-1.722a.252.252 0 1 0-.4-.307l-1.323 1.719a.252.252 0 0 0 .4.307zM23.445 19.1a.251.251 0 0 0 .2-.1l1.842-2.464a.252.252 0 1 0-.4-.3L23.243 18.7a.252.252 0 0 0 .2.4zM17.1 27.591a.252.252 0 0 0 .2-.1l1.11-1.483a.252.252 0 1 0-.4-.3l-1.11 1.48a.252.252 0 0 0 .2.4z" style="fill:#707070;fill-rule:evenodd" transform="translate(-10 -7)"/>
    </g>
</svg>
